<?xml version="1.0" encoding="utf-8"?>
<!-- Generator: Adobe Illustrator 24.1.3, SVG Export Plug-In . SVG Version: 6.00 Build 0)  -->
<svg version="1.1" id="Layer_1" xmlns="http://www.w3.org/2000/svg" xmlns:xlink="http://www.w3.org/1999/xlink" x="0px" y="0px"
	 viewBox="0 0 170.7 57.5" style="enable-background:new 0 0 170.7 57.5;" xml:space="preserve">
<style type="text/css">
	.st0{fill:#FFFFFF;}
</style>
<g id="Layer_2_1_">
	<g id="Layer_1-2">
		<path class="st0" d="M18.4,46.2c-2,0-3.9-0.4-5.7-1.1c-1.7-0.7-3.3-1.8-4.5-3.2v3.7H0V0h8.9v16.5c2.6-2.4,5.9-3.7,9.4-3.7
			c2.9,0,5.7,0.7,8.1,2.2c2.4,1.4,4.5,3.5,5.8,6c1.4,2.6,2.1,5.6,2.1,8.6c0,3-0.7,5.9-2.1,8.6c-1.3,2.5-3.3,4.6-5.8,6
			C24,45.6,21.2,46.3,18.4,46.2z M17,38c3,0,5.7-1.6,7.2-4.2c1.5-2.7,1.5-5.9,0-8.6c-0.7-1.3-1.7-2.3-3-3c-1.3-0.7-2.7-1.1-4.2-1.1
			c-1.5,0-2.9,0.4-4.2,1.1c-1.3,0.7-2.3,1.8-3,3c-1.4,2.7-1.4,5.9,0,8.6c0.7,1.3,1.7,2.3,3,3C14.1,37.6,15.5,38,17,38z"/>
		<path class="st0" d="M49.9,46.2c-3.4,0-6.1-0.8-8.1-2.4c-2-1.6-3-4.1-2.9-6.6c0-1.9,0.6-3.8,1.8-5.3c1.4-1.7,3.3-2.9,5.4-3.5
			c2.9-0.9,5.9-1.4,8.9-1.6c1.6,0,3.2-0.3,4.7-0.9c0.8-0.3,1.4-1,1.4-1.9c0-1.2-0.6-2.3-1.6-2.9c-1.3-0.8-2.7-1.2-4.2-1.1
			c-1.6-0.1-3.1,0.4-4.4,1.3c-1.2,0.8-2,2.1-2.3,3.5h-8.3c0.6-4.7,3.6-8.7,8-10.5c2.4-1,4.9-1.4,7.4-1.4c2.6-0.1,5.1,0.5,7.5,1.6
			c2,1,3.7,2.5,4.9,4.5c1.2,2.1,1.8,4.4,1.7,6.8v11.9h3.7v7.8l-11.1,0.1v-4c-1.5,1.5-3.3,2.7-5.3,3.4C54.7,45.8,52.3,46.2,49.9,46.2
			z M52,39.4c3.3,0,6.3-1.6,8.2-4.2c0.9-1.2,1.3-2.6,1.3-4.1v-0.4c-0.6,0.4-1.3,0.7-2.1,0.9c-1.1,0.3-2.3,0.5-3.4,0.6
			c-0.1,0-0.2,0-0.3,0h-0.3c-2,0-4,0.5-5.8,1.3c-1.1,0.5-1.8,1.6-1.8,2.8c-0.1,0.9,0.4,1.8,1.1,2.3C49.9,39.2,50.9,39.5,52,39.4z"/>
		<path class="st0" d="M95.3,46.2c-3.1,0-6.2-0.7-8.9-2.2c-5.3-2.9-8.5-8.5-8.4-14.5c-0.1-6,3.2-11.6,8.5-14.5
			c2.7-1.5,5.7-2.2,8.8-2.2c2.7,0,5.5,0.6,7.9,1.8c2.3,1.1,4.3,2.8,5.7,4.9c1.5,2,2.4,4.4,2.6,6.9h-8.9c-0.4-1.6-1.3-3-2.7-3.9
			c-1.4-1-3.1-1.6-4.8-1.5c-1.5,0-3,0.4-4.3,1.1c-1.3,0.7-2.3,1.8-3,3.1c-1.5,2.7-1.5,6,0,8.7c0.7,1.3,1.7,2.4,3,3.1
			c1.3,0.8,2.8,1.1,4.3,1.1c1.7,0,3.4-0.5,4.8-1.5c1.3-1,2.3-2.4,2.7-4h8.9c-0.3,2.5-1.2,4.9-2.7,7c-1.5,2.1-3.5,3.7-5.8,4.8
			C100.7,45.6,98,46.2,95.3,46.2z"/>
		<path class="st0" d="M119.2,0h8.9v25.4h4.2l8.8-11.9h9.9L139.4,29l12.1,16.6h-10.6l-8.7-11.9h-4.1v11.9h-8.9L119.2,0z"/>
	</g>
</g>
</svg>
