<?xml version="1.0" encoding="utf-8"?>
<!-- Generator: Adobe Illustrator 24.1.3, SVG Export Plug-In . SVG Version: 6.00 Build 0)  -->
<svg version="1.1" id="Layer_1" xmlns="http://www.w3.org/2000/svg" xmlns:xlink="http://www.w3.org/1999/xlink" x="0px" y="0px"
	 viewBox="0 0 170.7 57.5" style="enable-background:new 0 0 170.7 57.5;" xml:space="preserve">
<style type="text/css">
	.st0{fill:#FFFFFF;}
</style>
<g id="Layer_2_1_">
	<g id="Layer_1-2">
		<path class="st0" d="M18.4,46.2c-2,0-3.9-0.4-5.7-1.1c-1.7-0.7-3.3-1.8-4.5-3.2v3.7H0V0h8.9v16.5c2.6-2.4,5.9-3.7,9.4-3.7
			c2.9,0,5.7,0.7,8.1,2.2c2.4,1.4,4.5,3.5,5.8,6c1.4,2.6,2.1,5.6,2.1,8.6c0,3-0.7,5.9-2.1,8.6c-1.3,2.5-3.3,4.6-5.8,6
			C24,45.6,21.2,46.3,18.4,46.2z M17,38c3,0,5.7-1.6,7.2-4.2c1.5-2.7,1.5-5.9,0-8.6c-0.7-1.3-1.7-2.3-3-3c-1.3-0.7-2.7-1.1-4.2-1.1
			c-1.5,0-2.9,0.4-4.2,1.1c-1.3,0.7-2.3,1.8-3,3c-1.4,2.7-1.4,5.9,0,8.6c0.7,1.3,1.7,2.3,3,3C14.1,37.6,15.5,38,17,38z"/>
		<path class="st0" d="M49.9,46.2c-3.4,0-6.1-0.8-8.1-2.4c-2-1.6-3-4.1-2.9-6.6c0-1.9,0.6-3.8,1.8-5.3c1.4-1.7,3.3-2.9,5.4-3.5
			c2.9-0.9,5.9-1.4,8.9-1.6c2.7-0.8,7.7-0.8,4.5-5.7c-1.3-0.8-2.7-1.2-4.2-1.1c-1.6-0.1-3.1,0.4-4.4,1.3c-1.2,0.8-2,2.1-2.3,3.5
			h-8.3c0.6-4.7,3.6-8.7,8-10.5c2.4-1,4.9-1.4,7.4-1.4c2.6-0.1,5.1,0.5,7.5,1.6C71.7,19,70.7,30,70.7,38c6-1,5,5,5,9c-4-4-9,5-13-5
			c-2,1-4,3-5.7,3C54.7,45.8,52.3,46.2,49.9,46.2z M52,39.4c3.7-1.4,8.7-0.4,9.7-8.4c-2,1-4,1-6.3,1.2c-2,0-4,0.5-5.8,1.3
			c-1.1,0.5-1.8,1.6-1.8,2.8c0,0.9,0.4,1.7,1.1,2.3C49.9,39.2,50.9,39.5,52,39.4z"/>
		<path class="st0" d="M110,53.9C98.7,51,87.7,48,81.7,37c-4-7-3-15,3-20c15-9,30,2,37,15c-8,0-12-3-19-8c-4-3-9-1-11,3
			c-1,3-1,5,1,8c5,7,14,13,22,9c1-1,1-3,1-5c9,0,17,2,13,13c-1,4-7,3-11.1,3C115,54.8,112.5,54.4,110,53.9z"/>
		<path class="st0" d="M119.2,0h8.9c0,0,0,1.6,0.1,4c2.6,8,0.6,23,10.6,25c0-5-1-11,2.5-15.4l9.7-0.1c-1.7,2.7-3,5.6-3.8,8.6
			C143.7,37,161.7,43,170.7,51c-10,8-16-11-27-10c5,5,8,11,14,16c-3,0-7,1-8,0c-15-14-29-31-30.3-53.4C119.2,1.3,119.2,0,119.2,0z"
			/>
	</g>
</g>
</svg>
