<?xml version="1.0" encoding="utf-8"?>
<!-- Generator: Adobe Illustrator 24.1.3, SVG Export Plug-In . SVG Version: 6.00 Build 0)  -->
<svg version="1.1" id="Layer_1" xmlns="http://www.w3.org/2000/svg" xmlns:xlink="http://www.w3.org/1999/xlink" x="0px" y="0px"
	 viewBox="0 0 332.7 94.9" style="enable-background:new 0 0 332.7 94.9;" xml:space="preserve">
<style type="text/css">
	.st0{fill:#FFFFFF;}
</style>
<g id="Layer_2_1_">
	<g id="Layer_1-2">
		<path class="st0" d="M1.7,41.3v33.7h9.4V58.2c0.2-6.2,0.2-11.2,0-16.9L1.7,41.3z"/>
		<path class="st0" d="M0,24.8l6.1,12.7h0.7l3-6.4c1.5-3.2,3-6.4,3-6.4s-3.2,0-6.4,0L0,24.8z"/>
		<path class="st0" d="M30.3,40v-4c-3,1-5,3-8.2,3.7v5.7C22.3,55,20.3,65,23.3,75c0,1,7,1,7,0c3-12-2-34,12-33c9,1,0,22,5,32
			c1,1,8,0,8-1c2-15,5-32-3-45C45.3,17,35.3,34,30.3,40z"/>
		<path class="st0" d="M90.3,19v21c-3-8-14-19-20-13c-10,10-9,27-2,40c2,4,6,9,12.2,8.1c4,0.3,8-1.2,10.7-4.2v4l8.6,0.1V62.4
			C97.3,47,108.3,25,90.3,19z M82,65.2c-1.7-0.3-3.2-1.1-4.4-2.3C72.3,57,71.3,48,75.3,42c1.9-1.8,4.7-2.2,7-1
			C90.3,46,95.3,63,82,65.2z"/>
		<path class="st0" d="M135,58.9c0,1.4-0.3,2.9-1.1,4.1c-0.7,1.2-1.7,2.2-2.9,2.9c-1.3,0.7-2.7,1.1-4.2,1.1c-2,0.1-3.9-0.7-5.2-2.2
			c-1.4-1.7-2-3.8-1.9-6V41.3h-9.5v19.1c-0.1,2.8,0.6,5.5,1.8,8c1.2,2.3,3,4.1,5.2,5.4c2.4,1.3,5,1.9,7.7,1.9c2.1,0,4.2-0.4,6.1-1.2
			c1.8-0.7,3.4-1.9,4.8-3.3V75h8.6V41.3H135V58.9z"/>
		<path class="st0" d="M163.3,50c-2-3,6-4,10-3c1,1,2,3,3,3c3,1,6,0,9-1c-1-4-1-9-5-11c-9-3-18,1-25.2,6.9c-1.5,1.7-2.4,3.9-2.3,6.1
			c-0.1,2,0.6,4.1,1.9,5.6c1.4,1.5,3.1,2.5,5,3.2c4.5,2.2,13.5,0.2,15.5,5.2c2,3-4,2-5.9,3.7c-2,0.1-3.9-0.4-5.6-1.4
			c-1.4-0.8-2.4-2.2-2.8-3.8h-9.6c0.3,3.9,2.5,7.3,5.7,9.4c3.7,2.2,7.9,3.3,12.1,3.2c2.8,0,5.5-0.4,8.1-1.3
			c5.8-1.7,9.8-7.7,7.8-13.7C180.3,52,167.3,58,163.3,50z"/>
		<path class="st0" d="M217.3,45c2-10-1-18-12-18c0.6-2.8,0.7-5.7,0.5-8.6c0.5-5.4-4.5-9.4-8.5-7.4c-3,3,0,7-0.9,10.6
			c-0.2,2.3-0.9,4.5-2.1,6.4c-2,1-5,2-6,3c-1,4-1,9,1,13c1,1,4,0,7-1c1,12-5,33,12.8,32.6c1.4,0,2.8-0.1,4.1-0.2
			c1.3-0.3,2.7-0.4,4.1-0.4c1-3,0-6,0-9c-16,4-12-14-12-24L217.3,45z"/>
		<path class="st0" d="M250.3,39c-6-3-11,0-16,4c0-2,1-5-3.3-6.2c-2.1,0-4.5,0.9-5.2-1.5c0,0,0,3,0.1,7.2c-0.5,11.5-0.5,21.5,0,32.5
			h9.4v-9.2c0.1-2.4-0.1-4.9-0.1-7.3c-0.1-2.3,0.4-4.5,1.3-6.6c1-2,4-3,6-3c3,1,6,3,5,7c3-1,7,0,8-2C259.3,50,255.3,42,250.3,39z"/>
		<path class="st0" d="M260.5,33.6c0,0,0.2,3.2,0.6,7.9c3.3,10.5-1.7,40.5,8.3,31.5c8-9,1-28,0-43C266.3,30.9,263.3,32.1,260.5,33.6
			z"/>
		<path class="st0" d="M265.3,0c-2,4-7,4-9.3,8.2c0,0,2.3,3.8,4.3,8.1c2,2.8,2,5.8,4,8.8C267.3,17,266.3,8,265.3,0z"/>
		<path class="st0" d="M287.3,33c-6,1-10,11-6,15c4,5,7-2,12-4c4-1,12,6,7,8c-6,3-18,1-21,10c-2,8,4,14,11.5,13.7
			c2.5,0,5-0.4,7.4-1.3c2.1-0.7,4-1.9,5.6-3.5v4.2l11.7-0.1v-8.2h-3.9C314.3,51,306.3,29,287.3,33z M293,68.3c-1.2,0-2.3-0.3-3.2-1
			C285.3,56,300.3,62,303.3,59C302.3,64,299.3,69,293,68.3z"/>
		<path class="st0" d="M323.2,26.7c0,0,0,1.4,0,3.6c0.1,10.7,0.1,21.7,0.1,32.3v12.4h9.4V27.1L323.2,26.7z"/>
	</g>
</g>
</svg>
