<?xml version="1.0" encoding="utf-8"?>
<!-- Generator: Adobe Illustrator 24.1.3, SVG Export Plug-In . SVG Version: 6.00 Build 0)  -->
<svg version="1.1" id="Layer_1" xmlns="http://www.w3.org/2000/svg" xmlns:xlink="http://www.w3.org/1999/xlink" x="0px" y="0px"
	 viewBox="0 0 332.7 94.9" style="enable-background:new 0 0 332.7 94.9;" xml:space="preserve">
<style type="text/css">
	.st0{fill:#FFFFFF;}
</style>
<g id="Layer_2_1_">
	<g id="Layer_1-2">
		<rect x="1.7" y="41.3" class="st0" width="9.4" height="33.7"/>
		<polygon class="st0" points="6.1,37.5 6.8,37.5 12.8,24.8 0,24.8 		"/>
		<path class="st0" d="M49.3,42.5c-2.4-1.3-5-1.9-7.7-1.9c-2.1,0-4.2,0.4-6.1,1.2c-1.8,0.7-3.4,1.9-4.8,3.3v-3.8h-8.6v33.7h9.4V57.4
			c0-1.5,0.3-2.9,1-4.2c0.7-1.2,1.7-2.2,2.9-2.9c1.3-0.7,2.7-1.1,4.2-1.1c2-0.1,3.9,0.7,5.2,2.2c1.4,1.7,2,3.8,1.9,6v17.6h9.5V56
			c0-2.8-0.6-5.5-1.9-8C53.3,45.7,51.5,43.8,49.3,42.5z"/>
		<path class="st0" d="M90.4,44.5c-2.7-2.5-6.2-3.9-9.9-3.8c-3,0-6,0.7-8.6,2.3c-2.5,1.5-4.6,3.7-6,6.3c-2.9,5.6-2.9,12.4,0,18
			c1.4,2.6,3.5,4.8,6,6.3c2.6,1.5,5.6,2.3,8.6,2.3c2.1,0,4.1-0.4,6-1.2c1.8-0.8,3.4-1.9,4.8-3.3V75h8.6V27.1h-9.4V44.5z M89.5,62.7
			c-0.7,1.3-1.8,2.4-3.1,3.2c-4.1,2.5-9.4,1.1-11.9-3c0-0.1-0.1-0.1-0.1-0.2c-1.5-2.8-1.5-6.2,0-9c2.4-4.2,7.8-5.6,12-3.2
			c0,0,0,0,0,0c1.3,0.8,2.4,1.9,3.1,3.2C91,56.5,91,59.9,89.5,62.7z"/>
		<path class="st0" d="M135,58.9c0,1.4-0.3,2.9-1.1,4.1c-0.7,1.2-1.7,2.2-2.9,2.9c-1.3,0.7-2.7,1.1-4.2,1.1c-2,0.1-3.9-0.7-5.2-2.2
			c-1.4-1.7-2-3.8-1.9-6V41.3h-9.5v19.1c-0.1,2.8,0.6,5.5,1.8,8c1.2,2.3,3,4.1,5.2,5.4c2.4,1.3,5,1.9,7.7,1.9c2.1,0,4.2-0.4,6.1-1.2
			c1.8-0.7,3.4-1.9,4.8-3.3V75h8.6V41.3H135V58.9z"/>
		<path class="st0" d="M179,56.9c-2.3-0.8-4.7-1.5-7.1-1.9l-0.5-0.1l-0.5-0.1c-0.4-0.1-0.7-0.2-0.9-0.2l-0.9-0.1
			c-1.6-0.3-2.9-0.6-3.9-0.8c-0.8-0.2-1.6-0.5-2.3-1c-0.5-0.4-0.8-1-0.8-1.7c0-1.1,0.7-2,1.7-2.3c1.2-0.5,2.6-0.7,3.9-0.7
			c1.8,0,3.6,0.4,5.2,1.1c1.4,0.7,2.5,2,2.9,3.5h9.5c-0.5-4.2-2.3-7.3-5.4-9.2c-3.4-2.1-7.4-3.1-11.4-3c-2.6,0-5.1,0.4-7.6,1.1
			c-2.2,0.6-4.2,1.8-5.9,3.5c-1.6,1.6-2.4,3.8-2.3,6.1c-0.1,2,0.6,4.1,1.9,5.6c1.4,1.5,3.1,2.5,5,3.2c2.5,0.8,5.1,1.5,7.7,2
			c0.3,0.1,0.6,0.2,0.9,0.2l0.9,0.1c1.3,0.2,2.6,0.5,3.9,0.8c0.8,0.2,1.5,0.5,2.1,1c0.5,0.3,0.7,0.9,0.7,1.4c0,0.8-0.3,1.5-1,2
			c-0.8,0.5-1.6,0.8-2.5,1c-1,0.2-2,0.3-3,0.3c-2,0.1-3.9-0.4-5.6-1.4c-1.4-0.8-2.4-2.2-2.8-3.8h-9.6c0.3,3.9,2.5,7.3,5.7,9.4
			c3.7,2.2,7.9,3.3,12.1,3.2c2.8,0,5.5-0.4,8.1-1.2c2.2-0.7,4.3-2,5.9-3.7c1.5-1.6,2.2-3.8,2.2-5.9c0.1-1.9-0.6-3.7-1.8-5.1
			C182.4,58.6,180.8,57.6,179,56.9z"/>
		<path class="st0" d="M205.5,33.2h-8.6v3.8c0.1,1.1-0.3,2.3-1,3.2c-0.9,0.8-2,1.2-3.1,1.1h-4.2v8.5h7.6v14.6c0,3.7,1.1,6.5,3.2,8.4
			s5.4,2.9,9.9,2.9c1.4,0,2.8-0.1,4.1-0.3c1.6-0.2,3-0.4,4.4-0.6v-8.4c-2.4,0.5-4.8,0.7-7.2,0.7c-1.4,0.1-2.7-0.2-3.9-1
			c-0.8-0.9-1.2-2.2-1.1-3.4V49.8h12.1v-8.5h-12.2V33.2z"/>
		<path class="st0" d="M250.9,42.2c-3.8-1.9-8.2-2.1-12.1-0.4c-1.7,0.8-3.2,1.9-4.4,3.4v-3.9h-8.6v33.7h9.4V56.8
			c0-1.3,0.3-2.6,0.9-3.8c0.6-1.1,1.5-2,2.5-2.6c1-0.6,2.2-1,3.4-0.9c1.4-0.1,2.9,0.4,4,1.2c1,0.9,1.6,2.3,1.5,3.7v1.3h9.4v-2.3
			c0.1-2.4-0.5-4.7-1.6-6.8C254.3,44.7,252.8,43.2,250.9,42.2z"/>
		<polygon class="st0" points="266.5,37.5 267.2,37.5 273.2,24.8 260.4,24.8 		"/>
		<rect x="262.1" y="41.3" class="st0" width="9.4" height="33.7"/>
		<path class="st0" d="M311.7,54.3c0.1-2.5-0.6-5-1.8-7.2c-1.2-2.1-3-3.7-5.2-4.8c-2.4-1.2-5.1-1.8-7.8-1.7c-2.7,0-5.3,0.5-7.8,1.5
			c-4.6,1.9-7.8,6.1-8.4,11h8.8c0.3-1.5,1.2-2.8,2.4-3.7c2.7-1.7,6.2-1.7,9-0.1c1.1,0.7,1.7,1.8,1.7,3.1c0,0.9-0.6,1.7-1.5,2
			c-1.6,0.6-3.3,0.9-5,0.9c-3.2,0.1-6.3,0.7-9.4,1.7c-2.2,0.7-4.2,1.9-5.7,3.7c-1.3,1.6-1.9,3.6-1.9,5.6c-0.1,2.7,1,5.3,3.1,7
			c2,1.7,4.9,2.5,8.5,2.5c2.5,0,5-0.4,7.4-1.3c2.1-0.7,4-1.9,5.6-3.5v4.2l11.7-0.1v-8.3h-3.9L311.7,54.3z M303.1,59.8
			c0,1.6-0.5,3.1-1.4,4.3c-2,2.8-5.2,4.4-8.6,4.4c-1.1,0.1-2.3-0.2-3.2-0.8c-0.7-0.6-1.2-1.5-1.1-2.4c0-1.3,0.7-2.4,1.9-2.9
			c1.9-0.9,4-1.3,6.1-1.4c0.1,0,0.2,0,0.3,0h0.3c1.2-0.1,2.4-0.3,3.6-0.6c0.8-0.2,1.5-0.5,2.2-0.9V59.8z"/>
		<rect x="323.3" y="27.1" class="st0" width="9.4" height="47.9"/>
	</g>
</g>
</svg>
