<?xml version="1.0" encoding="utf-8"?>
<!-- Generator: Adobe Illustrator 24.1.3, SVG Export Plug-In . SVG Version: 6.00 Build 0)  -->
<svg version="1.1" id="Layer_1" xmlns="http://www.w3.org/2000/svg" xmlns:xlink="http://www.w3.org/1999/xlink" x="0px" y="0px"
	 viewBox="0 0 773.1 79.3" style="enable-background:new 0 0 773.1 79.3;" xml:space="preserve">
<style type="text/css">
	.st0{fill:#FFFFFF;}
</style>
<g id="Layer_2_1_">
	<g id="Layer_1-2">
		<path class="st0" d="M0,21.2h8.9L14.6,44l6-22.8h9.2l5.9,22.6l5.7-22.6h8.8l-8.1,32.1H31l-5.9-22.4l-5.9,22.4h-11L0,21.2z"/>
		<path class="st0" d="M56.9,7.7h8.9v16.4c1.2-1.2,2.7-2.1,4.3-2.7c1.7-0.6,3.5-0.9,5.3-0.9c2.6-0.1,5.1,0.6,7.3,1.8
			c2.1,1.2,3.8,3,4.9,5.1c1.2,2.4,1.8,5,1.8,7.6v18.2h-9V36.5c0.1-2.1-0.5-4.1-1.8-5.7c-1.3-1.4-3.1-2.2-5-2.1c-1.4,0-2.8,0.3-4,1
			c-1.2,0.7-2.1,1.6-2.8,2.8c-0.7,1.2-1,2.6-1,4v16.8h-8.9V7.7z"/>
		<path class="st0" d="M107.2,53.9c-3.4,0-6.1-0.8-8.1-2.4c-2-1.6-3-4.1-2.9-6.6c0-1.9,0.6-3.8,1.8-5.3c1.4-1.7,3.3-2.9,5.4-3.5
			c2.9-0.9,5.9-1.5,8.9-1.6c1.6,0,3.2-0.3,4.7-0.9c0.8-0.3,1.4-1,1.4-1.9c0-1.2-0.6-2.3-1.6-2.9c-2.7-1.6-6-1.5-8.6,0.1
			c-1.2,0.8-2,2.1-2.3,3.5h-8.4c0.6-4.7,3.6-8.7,8-10.5c2.3-1,4.9-1.4,7.4-1.4c2.6-0.1,5.1,0.5,7.4,1.6c2,1,3.8,2.6,4.9,4.6
			c1.2,2.1,1.8,4.4,1.7,6.8v11.9h3.7v7.8l-11.1,0.1v-4c-1.5,1.5-3.3,2.6-5.3,3.3C111.9,53.5,109.6,54,107.2,53.9z M109.3,47.1
			c3.3,0,6.3-1.6,8.2-4.2c0.9-1.2,1.3-2.6,1.3-4.1v-0.4c-0.6,0.4-1.3,0.7-2.1,0.9c-1.1,0.3-2.3,0.5-3.4,0.6h-0.3c-0.1,0-0.2,0-0.3,0
			c-2,0.1-4,0.5-5.8,1.3c-1.1,0.5-1.8,1.6-1.8,2.8c-0.1,0.9,0.3,1.7,1,2.3C107.1,46.9,108.2,47.2,109.3,47.1z"/>
		<path class="st0" d="M152.8,53.9c-4.2,0-7.4-0.9-9.4-2.7c-2-1.8-3-4.5-3-8V29.3h-7.2v-8.1h4c1.1,0.1,2.2-0.3,3-1
			c0.7-0.8,1.1-1.9,1-3v-3.7h8.2v7.7h11.6v8.1h-11.6v12.2c-0.1,1.2,0.3,2.4,1.1,3.3c1.1,0.8,2.4,1.1,3.7,1c2.3,0,4.6-0.2,6.8-0.6v8
			c-1.3,0.2-2.7,0.4-4.2,0.6C155.4,53.8,154.1,53.9,152.8,53.9z"/>
		<path class="st0" d="M192.6,53.9c-3.4,0-6.1-0.8-8.1-2.4c-2-1.6-3-4.1-2.9-6.6c0-1.9,0.6-3.8,1.8-5.3c1.4-1.7,3.3-2.9,5.4-3.5
			c2.9-0.9,5.9-1.5,8.9-1.6c1.6,0,3.2-0.3,4.7-0.9c0.8-0.3,1.4-1,1.4-1.9c0-1.2-0.6-2.3-1.6-2.9c-2.7-1.6-6-1.5-8.6,0.1
			c-1.2,0.8-2,2.1-2.3,3.5H183c0.6-4.7,3.6-8.7,8-10.4c2.4-1,4.9-1.4,7.4-1.4c2.6-0.1,5.1,0.5,7.4,1.6c2,1,3.7,2.6,4.9,4.6
			c1.2,2.1,1.8,4.4,1.7,6.8v11.9h3.7v7.8L205,53.4v-4c-1.5,1.5-3.3,2.6-5.3,3.3C197.4,53.5,195,54,192.6,53.9z M194.7,47.1
			c3.3,0,6.3-1.6,8.2-4.2c0.9-1.2,1.3-2.6,1.4-4.1v-0.4c-0.6,0.4-1.3,0.7-2.1,0.9c-1.1,0.3-2.3,0.5-3.4,0.6h-0.3c-0.1,0-0.2,0-0.3,0
			c-2,0-4,0.5-5.8,1.3c-1.1,0.5-1.8,1.6-1.8,2.8c0,0.9,0.3,1.7,1.1,2.3C192.6,46.9,193.6,47.2,194.7,47.1L194.7,47.1z"/>
		<path class="st0" d="M223.5,21.2h8.1v3.7c1.1-1.4,2.6-2.5,4.2-3.2c3.7-1.6,7.9-1.5,11.5,0.4c1.8,1,3.3,2.4,4.2,4.2
			c1,2,1.6,4.2,1.5,6.5v2.2h-8.9v-1.3c0.1-1.3-0.4-2.6-1.4-3.5c-1.1-0.8-2.4-1.2-3.8-1.2c-1.2,0-2.3,0.3-3.3,0.9
			c-1,0.6-1.8,1.5-2.4,2.5c-0.6,1.1-0.9,2.3-0.9,3.6v17.3h-8.9V21.2z"/>
		<path class="st0" d="M272.7,53.9c-3.2,0.1-6.3-0.6-9.2-2.1c-2.6-1.3-4.7-3.3-6.2-5.8c-1.5-2.6-2.2-5.6-2.2-8.6
			c-0.1-6.1,3.3-11.8,8.7-14.7c2.7-1.5,5.8-2.2,8.9-2.2c3,0,6,0.7,8.6,2.1c2.5,1.4,4.6,3.4,6.1,5.9c1.5,2.6,2.3,5.5,2.2,8.5
			c0,0.5,0,0.9-0.1,1.3l-0.1,1.3h-25.6c0.3,1.3,0.8,2.5,1.6,3.5c0.8,1.1,1.9,1.9,3.1,2.5c1.3,0.6,2.8,1,4.3,0.9c1.4,0,2.8-0.3,4-0.8
			c1.1-0.5,2.1-1.3,2.8-2.3h8.9c-0.4,1.9-1.3,3.7-2.6,5.1c-1.5,1.7-3.4,3-5.5,3.8C277.9,53.5,275.3,54,272.7,53.9z M280.9,33.9
			c-0.3-1.2-0.9-2.3-1.7-3.2c-0.8-0.9-1.8-1.6-2.9-2.1c-1.2-0.5-2.5-0.8-3.8-0.7c-1.3,0-2.5,0.2-3.7,0.7c-1.1,0.5-2.2,1.2-3,2.1
			c-0.8,0.9-1.4,2-1.8,3.2L280.9,33.9z"/>
		<path class="st0" d="M327.9,53.9c-3.1,0-6.2-0.7-9-2.2c-2.6-1.4-4.8-3.5-6.3-6c-1.5-2.6-2.3-5.6-2.3-8.6c0-3,0.7-6,2.3-8.6
			c1.5-2.6,3.7-4.6,6.3-6c5.7-2.9,12.3-2.9,18,0c2.6,1.4,4.8,3.4,6.3,6c1.5,2.6,2.3,5.6,2.3,8.6c0,3-0.8,5.9-2.3,8.5
			c-1.5,2.5-3.7,4.6-6.3,6C334.1,53.2,331,54,327.9,53.9z M327.9,45.7c1.5,0,3-0.3,4.3-1.1c1.2-0.7,2.3-1.8,3-3c1.5-2.7,1.5-6,0-8.7
			c-0.7-1.2-1.8-2.3-3-3c-1.3-0.7-2.8-1.1-4.3-1.1c-1.5,0-3,0.3-4.4,1.1c-1.3,0.7-2.3,1.7-3,3c-1.5,2.7-1.5,6,0,8.8
			c0.7,1.3,1.7,2.3,3,3C324.8,45.4,326.3,45.8,327.9,45.7z"/>
		<path class="st0" d="M353.1,21.2h8.2v3.7c1.1-1.4,2.6-2.5,4.2-3.2c3.7-1.6,7.9-1.5,11.5,0.4c1.8,1,3.3,2.4,4.2,4.2
			c1,2,1.6,4.2,1.5,6.5v2.2h-8.9v-1.3c0.1-1.3-0.4-2.6-1.4-3.5c-1.1-0.8-2.4-1.2-3.8-1.2c-1.2,0-2.3,0.3-3.3,0.9
			c-1,0.6-1.8,1.5-2.4,2.5c-0.6,1.1-0.9,2.3-0.9,3.6v17.3h-8.9L353.1,21.2z"/>
		<path class="st0" d="M400.8,53.9c-2.9,0-5.7-0.7-8.1-2.2c-2.4-1.4-4.4-3.5-5.8-6c-1.4-2.6-2.1-5.6-2.1-8.6c0-3,0.7-5.9,2.1-8.6
			c1.3-2.5,3.3-4.6,5.8-6c2.5-1.4,5.3-2.2,8.1-2.1c1.8,0,3.5,0.3,5.2,1c1.6,0.6,3,1.5,4.3,2.7V7.7h8.9v45.6H411v-3.7
			c-1.3,1.4-2.8,2.4-4.5,3.2C404.7,53.6,402.7,54,400.8,53.9z M402.2,45.7c1.5,0,2.9-0.4,4.2-1.1c1.3-0.7,2.3-1.8,3-3
			c1.4-2.7,1.4-5.9,0-8.6c-0.7-1.3-1.7-2.3-3-3c-2.6-1.5-5.8-1.5-8.4,0c-1.3,0.7-2.3,1.8-3,3.1c-1.5,2.7-1.5,5.9,0,8.6
			c0.7,1.3,1.7,2.3,3,3C399.3,45.4,400.7,45.8,402.2,45.7z"/>
		<path class="st0" d="M428.1,5.5h12.2l-5.8,12.1h-0.6L428.1,5.5z M429.7,21.2h8.9v32.1h-8.9V21.2z"/>
		<path class="st0" d="M449.1,21.2h8.1v3.6c1.3-1.3,2.8-2.4,4.5-3.1c1.8-0.8,3.8-1.1,5.8-1.1c2.6-0.1,5.1,0.6,7.3,1.8
			c2.1,1.2,3.8,3,4.9,5.1c1.2,2.4,1.8,5,1.8,7.6v18.2h-9.1V36.5c0.1-2.1-0.5-4.1-1.8-5.7c-1.3-1.4-3.1-2.2-5-2.1c-1.4,0-2.7,0.3-4,1
			c-1.2,0.7-2.1,1.6-2.8,2.8c-0.7,1.2-1,2.6-1,4v16.8h-8.9L449.1,21.2z"/>
		<path class="st0" d="M499.4,53.9c-3.4,0-6.1-0.8-8.1-2.4c-2-1.6-3-4.1-2.9-6.6c0-1.9,0.6-3.8,1.8-5.3c1.4-1.7,3.3-2.9,5.4-3.5
			c2.9-0.9,5.9-1.5,8.9-1.6c1.6,0,3.2-0.3,4.7-0.9c0.8-0.3,1.4-1,1.4-1.9c0-1.2-0.6-2.3-1.6-2.9c-1.3-0.8-2.7-1.2-4.2-1.1
			c-1.6-0.1-3.1,0.4-4.4,1.3c-1.2,0.8-2,2.1-2.3,3.5h-8.3c0.6-4.7,3.6-8.7,8-10.5c2.4-1,4.9-1.4,7.4-1.4c2.6-0.1,5.1,0.5,7.4,1.6
			c2,1,3.8,2.6,4.9,4.6c1.2,2.1,1.8,4.4,1.7,6.8v11.9h3.7v7.8l-11.1,0.1v-4c-1.5,1.5-3.3,2.6-5.3,3.3
			C504.2,53.5,501.8,54,499.4,53.9z M501.5,47.1c3.3,0,6.3-1.6,8.2-4.2c0.9-1.2,1.3-2.6,1.4-4.1v-0.4c-0.6,0.4-1.3,0.7-2,0.9
			c-1.1,0.3-2.3,0.5-3.4,0.6h-0.3c-0.1,0-0.2,0-0.3,0c-2,0.1-4,0.5-5.8,1.3c-1.1,0.5-1.8,1.6-1.8,2.8c0,0.9,0.3,1.7,1.1,2.3
			C499.4,46.9,500.4,47.2,501.5,47.1z"/>
		<path class="st0" d="M530.3,21.2h8.2v3.7c2.4-2.8,6-4.4,9.7-4.4c2.1,0,4.2,0.4,6.1,1.4c1.8,0.9,3.3,2.2,4.6,3.7
			c1.2-1.6,2.8-2.9,4.7-3.8c1.9-0.9,4-1.3,6.1-1.3c2.6-0.1,5.2,0.5,7.5,1.7c2.1,1.1,3.9,2.9,5,5c1.2,2.3,1.8,4.9,1.8,7.5v18.5h-9
			V36.2c0.1-2-0.6-3.9-1.8-5.4c-1.2-1.3-2.9-2.1-4.7-2c-1.2,0-2.4,0.3-3.5,1c-1,0.7-1.9,1.7-2.5,2.8c-0.6,1.2-0.9,2.6-0.9,4v16.8h-9
			V36.2c0.1-1.9-0.5-3.9-1.8-5.4c-1.2-1.3-2.9-2.1-4.7-2c-1.2,0-2.4,0.3-3.4,1c-1.1,0.7-1.9,1.7-2.5,2.8c-0.6,1.2-0.9,2.6-0.9,4
			v16.8h-8.9L530.3,21.2z"/>
		<path class="st0" d="M608.4,53.9c-3.2,0.1-6.3-0.6-9.2-2.1c-2.6-1.3-4.7-3.3-6.2-5.8c-1.5-2.6-2.2-5.6-2.2-8.6c0-3,0.8-6,2.3-8.7
			c1.5-2.5,3.7-4.6,6.4-6c2.7-1.5,5.8-2.2,8.9-2.2c3,0,6,0.7,8.6,2.1c2.5,1.4,4.6,3.4,6.1,5.9c1.5,2.6,2.3,5.5,2.2,8.5
			c0,0.5,0,0.9-0.1,1.3c0,0.4-0.1,0.9-0.1,1.3h-25.6c0.3,1.3,0.8,2.5,1.6,3.5c0.8,1.1,1.9,1.9,3.1,2.5c1.3,0.6,2.8,1,4.3,0.9
			c1.4,0,2.7-0.3,4-0.8c1.1-0.5,2.1-1.3,2.8-2.3h8.9c-0.4,1.9-1.3,3.7-2.6,5.1c-1.5,1.7-3.4,3-5.5,3.8C613.6,53.5,611,54,608.4,53.9
			z M616.6,33.9c-0.3-1.2-0.9-2.3-1.7-3.2c-0.8-0.9-1.8-1.7-2.9-2.1c-1.2-0.5-2.5-0.8-3.8-0.7c-1.3,0-2.5,0.2-3.7,0.7
			c-1.1,0.5-2.2,1.2-3,2.1c-0.8,0.9-1.4,2-1.8,3.2L616.6,33.9z"/>
		<path class="st0" d="M632.7,21.2h8.2v3.6c1.3-1.3,2.8-2.4,4.5-3.1c1.8-0.8,3.8-1.1,5.8-1.1c2.6-0.1,5.1,0.6,7.3,1.8
			c2.1,1.2,3.8,3,4.9,5.1c1.2,2.4,1.8,5,1.8,7.6v18.2h-9V36.5c0.1-2.1-0.5-4.1-1.8-5.7c-1.3-1.4-3.1-2.2-5-2.1c-1.4,0-2.8,0.3-4,1
			c-1.2,0.7-2.1,1.6-2.8,2.8c-0.7,1.2-1,2.6-1,4v16.8h-8.9L632.7,21.2z"/>
		<path class="st0" d="M689.7,53.9c-4.2,0-7.4-0.9-9.4-2.7c-2-1.8-3-4.5-3-8V29.3H670v-8.1h4c1.1,0.1,2.2-0.3,3-1
			c0.7-0.8,1.1-1.9,1-3v-3.7h8.2v7.7h11.6v8.1h-11.6v12.2c-0.1,1.2,0.3,2.4,1.1,3.3c1.1,0.8,2.4,1.1,3.7,1c2.3,0,4.6-0.2,6.8-0.6v8
			c-1.3,0.2-2.7,0.4-4.2,0.6C692.3,53.8,691,53.9,689.7,53.9z"/>
		<path class="st0" d="M718.2,54.2c-4.1,0.1-8.1-0.9-11.6-3c-3.1-1.9-5.2-5.3-5.5-8.9h9.1c0.3,1.5,1.3,2.8,2.7,3.6
			c1.6,0.9,3.5,1.4,5.3,1.3c1,0,1.9-0.1,2.8-0.3c0.8-0.2,1.7-0.5,2.4-1c0.6-0.4,1-1.1,1-1.9c0-0.5-0.2-1-0.7-1.3
			c-0.6-0.4-1.3-0.7-2-0.9c-1.2-0.3-2.4-0.6-3.7-0.8l-0.8-0.1c-0.3,0-0.6-0.1-0.9-0.2c-2.5-0.5-4.9-1.1-7.3-1.9
			c-1.8-0.6-3.4-1.6-4.7-3c-1.3-1.5-1.9-3.4-1.8-5.3c-0.1-2.1,0.7-4.2,2.2-5.8c1.5-1.6,3.5-2.7,5.6-3.3c2.3-0.7,4.8-1,7.2-1
			c3.8-0.1,7.6,0.9,10.8,2.8c3,1.9,4.7,4.8,5.1,8.8h-9.1c-0.4-1.5-1.4-2.7-2.8-3.3c-1.5-0.7-3.2-1.1-4.9-1.1c-1.3,0-2.5,0.2-3.7,0.7
			c-1,0.3-1.6,1.2-1.6,2.2c0,0.6,0.3,1.2,0.8,1.6c0.6,0.5,1.4,0.8,2.2,1c0.9,0.2,2.2,0.5,3.7,0.8c0.3,0,0.6,0.1,0.8,0.1
			s0.5,0.1,0.9,0.2l0.5,0.1l0.5,0.1c2.3,0.4,4.6,1,6.8,1.8c1.7,0.6,3.2,1.6,4.5,2.9c1.2,1.3,1.8,3.1,1.7,4.9
			c0.1,2.1-0.7,4.1-2.1,5.7c-1.5,1.6-3.4,2.8-5.6,3.5C723.5,53.8,720.9,54.2,718.2,54.2z"/>
		<path class="st0" d="M750.5,37.2c0-0.3-0.1-0.7-0.1-1s0-0.6,0-0.9c0-1.4,0.3-2.9,0.9-4.2c0.6-1.2,1.5-2.2,2.5-3
			c1.2-0.9,2.6-1.7,4-2.2h0.1l0.1-0.1c0.9-0.4,1.8-1,2.7-1.5c0.7-0.5,1.2-1,1.6-1.7c0.4-0.7,0.5-1.4,0.5-2.2c0-1.4-0.8-2.7-2-3.3
			c-1.5-0.9-3.3-1.3-5.1-1.2c-2.1-0.1-4.2,0.5-5.9,1.8c-1.5,1.3-2.4,3.2-2.7,5.1h-9.9c0.3-2.9,1.3-5.8,2.9-8.2
			c1.6-2.3,3.9-4.2,6.5-5.3c2.9-1.3,6.1-1.9,9.3-1.9c3-0.1,6,0.5,8.9,1.5c2.4,0.9,4.5,2.4,6,4.4c1.4,2,2.2,4.4,2.2,6.8
			c0.1,2.2-0.7,4.4-2.2,6.1c-1.9,2-4.1,3.6-6.6,4.8l-0.1,0.1h-0.1c-1.1,0.6-2.2,1.2-3.3,1.9c-0.7,0.4-1.2,1.1-1.5,1.8
			c-0.3,0.8-0.5,1.7-0.5,2.5L750.5,37.2z M755,53.9c-3.3,0.1-6-2.6-6.1-5.9c0-0.1,0-0.1,0-0.2c0-1.6,0.6-3.2,1.8-4.4
			c2.4-2.4,6.3-2.5,8.7-0.1s2.5,6.3,0.1,8.7C758.3,53.3,756.7,54,755,53.9z"/>
	</g>
</g>
</svg>
