<?xml version="1.0" encoding="utf-8"?>
<!-- Generator: Adobe Illustrator 24.1.3, SVG Export Plug-In . SVG Version: 6.00 Build 0)  -->
<svg version="1.1" id="Layer_1" xmlns="http://www.w3.org/2000/svg" xmlns:xlink="http://www.w3.org/1999/xlink" x="0px" y="0px"
	 viewBox="0 0 773.1 79.3" style="enable-background:new 0 0 773.1 79.3;" xml:space="preserve">
<style type="text/css">
	.st0{fill:#FFFFFF;}
</style>
<g id="Layer_2_1_">
	<g id="Layer_1-2">
		<path class="st0" d="M0,21.2h8.9L14.6,44l6-22.8h9.2l5.9,22.6l5.7-22.6h8.8l-8.1,32.1H31l-5.9-22.4l-5.9,22.4h-11L0,21.2z"/>
		<path class="st0" d="M56.9,7.7h8.9c-0.2,5.6-0.2,11.6-0.2,17.6c29-11,28,34,36,51c-5-2-11-4-14-9c-7-10,1-36-18-33c-7,2-2,15-2,24
			c-18-2-9-25-10.7-38.7L56.9,7.7z"/>
		<path class="st0" d="M121.5,78.3c-1,0-3,1-4,1c-9-3-13-13-12-22c0-10,12-11,14-20c-0.2-1.5-0.9-2.9-2-4c-6-2-9,4-10,9c0,1-4,1-7,2
			c-2-12,8-25,20-20c10,4,6,18,9,27c1-1,2-1,3-2c3,7,1,14-4,20c-1-2-1-4-2-6c0.2,3-0.2,6-0.9,8.9C124.8,75,123.5,77.1,121.5,78.3z
			 M119.7,67.2c4.8-6.9,2.8-13.9,1.8-20.9c-2,7-13,12-4.5,21.2C117.9,68.1,119.1,68,119.7,67.2z"/>
		<path class="st0" d="M152.8,53.9c-14.2,1.4-12.2-14.6-12.2-24.6c-2,0-6,1-6,0c-4-6,0-9,5.6-9.1c0.7-0.8,1.1-1.9,1-3v-3.7h8.2v7.7
			h11.6v8.1h-11.6v12.2c-0.1,1.2,0.3,2.4,1.1,3.3c1.1,0.8,2.4,1.1,3.7,1c2.3,0,4.6-0.2,6.8-0.6v8c-1.3,0.2-2.7,0.4-4.2,0.6
			C155.4,53.8,154.1,53.9,152.8,53.9z"/>
		<path class="st0" d="M192.6,53.9c-3.4,0-6.1-0.8-8.1-2.4c-2-1.6-3-4.1-2.9-6.6c0-1.9,0.6-3.8,1.8-5.3c1.4-1.7,3.3-2.9,5.4-3.5
			c2.9-0.9,5.9-1.5,8.9-1.6c1.6,0,3.2-0.3,4.7-0.9c0.8-0.3,1.4-1,1.4-1.9c0-1.2-0.6-2.3-1.6-2.9c-2.7-1.6-6-1.5-8.6,0.1
			c-1.2,0.8-2,2.1-2.3,3.5H183c0.6-4.7,3.6-8.7,8-10.4c2.4-1,4.9-1.4,7.4-1.4c2.6-0.1,5.1,0.5,7.4,1.6c2,1,3.7,2.6,4.9,4.6
			c1.2,2.1,1.8,4.4,1.7,6.8v11.9h3.7v7.8L205,53.4v-4c-1.5,1.5-3.3,2.6-5.3,3.3C197.4,53.5,195,54,192.6,53.9z M194.7,47.1
			c3.3,0,6.3-1.6,8.2-4.2c0.9-1.2,1.3-2.6,1.4-4.1v-0.4c-0.6,0.4-1.3,0.7-2.1,0.9c-1.1,0.3-2.3,0.5-3.4,0.6h-0.3c-0.1,0-0.2,0-0.3,0
			c-2,0-4,0.5-5.8,1.3c-1.1,0.5-1.8,1.6-1.8,2.8c0,0.9,0.3,1.7,1.1,2.3C192.6,46.9,193.6,47.2,194.7,47.1L194.7,47.1z"/>
		<path class="st0" d="M223.5,21.2h8.1v3.7c1.1-1.4,2.6-2.5,4.2-3.2c3.7-1.6,7.9-1.5,11.5,0.4c1.8,1,3.3,2.4,4.2,4.2
			c1,2,1.6,4.2,1.5,6.5v2.2h-8.9v-1.3c0.1-1.3-0.4-2.6-1.4-3.5c-1.1-0.8-2.4-1.2-3.8-1.2c-1.2,0-2.3,0.3-3.3,0.9
			c-1,0.6-1.8,1.5-2.4,2.5c-0.6,1.1-0.9,2.3-0.9,3.6v17.3h-8.9V21.2z"/>
		<path class="st0" d="M272.6,53.3c-3.1,0.5-6.3,0-9.1-1.4c-2.6-1.3-4.7-3.3-6.2-5.8c-1.5-2.6-2.2-5.6-2.2-8.6
			c1.4-11.1,12.4-30.1,21.4-26.1c6,2,10,12,6,18s-12,9-19,10c1,3,2,5,5,6c8,2,9-9,16-10c1,6-2,10-5,14.8
			C277.6,51.9,275.2,53,272.6,53.3z M277.1,25.3c-0.5-2-1.5-5-3.5-4c-6,1-8,7-10,12c2-2,5-2,7.4-3.6
			C273.1,28.4,275.1,26.9,277.1,25.3z"/>
		<path class="st0" d="M323.2,50.4c-18.6-3.1-23.6-23.1-26.6-39.1c-1-5,1-13,7-11c16,3,29,15,37,29c3,7,1,17-7.3,20.5
			C330,50.9,326.5,51.1,323.2,50.4z M320.6,39.1c3.6,1.3,7.5-0.6,8.8-4.2c0.1-0.2,0.1-0.4,0.2-0.6c0-11-10-22-19-20
			c-9,1,0,15,4.4,21.4C316.6,37.2,318.5,38.4,320.6,39.1z"/>
		<path class="st0" d="M351.5,21.2c3.1,0.1,6.1-0.9,9.1,0.1v4c2-4,6-4,10.2-4.8c2.2,0,4.3,0.5,6.2,1.5c4.6,2.3,6.6,8.3,6.6,13.3
			c-5,0-11,2-11.2-5.1c-1.1-0.8-2.5-1.3-3.8-1.2c-2,0.3-5,1.3-6,3.3c-4,9,2,28-9,19c-5-4-2-16-2.2-25.2
			C351.4,23.1,351.5,21.2,351.5,21.2z"/>
		<path class="st0" d="M404,54.8c-9.4-0.5-18.4-8.5-18.4-17.5c1-4,1-9,5-12c7-5,17-6,23,0c-1-6-2-11-2-17h8c4,15,8,31,3,46
			c0,1-5,1-7,0v-3c-2,1-3,2-5.1,2.6C408.4,54.6,406.2,54.9,404,54.8z M406,46.8c2.5-0.5,6.5-1.5,8.5-3.5c4-6-1-13-9-14c-3,0-7,1-8,4
			c-1,4-3,8,3.7,12.2C402.7,46.3,404.3,46.7,406,46.8L406,46.8z"/>
		<path class="st0" d="M428.7,5.7c3.8-0.4,7.8-0.4,11.8-0.4c-1,4-4,8-4,13c-3-1-1-5-4.3-6.4C430.5,8.8,428.7,5.7,428.7,5.7z
			 M432.4,22c2.7,0.4,5.5,0.2,8.1-0.7c2,11,1,22,1,33h-8c2-9,0-18-0.5-27.1C432.7,24.1,432.4,22,432.4,22z"/>
		<path class="st0" d="M450,21.5c2.6-0.2,5.6-1.2,7.6-0.2v4c4-6,11-6,17.4-3c2.1,1.2,3.8,3,4.9,5.1c1.2,2.4,1.8,5,1.8,7.6v18.2h-9.1
			c-1-8,4-24-7-24s-4,16-8,24c0,1-6,0-6,0c-3-9-1-18-1.2-26.7C450.1,23.5,450,21.5,450,21.5z"/>
		<path class="st0" d="M499.4,53.9c-3.4,0-6.1-0.8-8.1-2.4c-2-1.6-3-4.1-2.9-6.6c0-1.9,0.6-3.8,1.8-5.3c1.4-1.7,3.3-2.9,5.4-3.5
			c2.9-0.9,5.9-1.5,8.9-1.6c1.6,0,3.2-0.3,4.7-0.9c0.8-0.3,1.4-1,1.4-1.9c0-1.2-0.6-2.3-1.6-2.9c-1.3-0.8-2.7-1.2-4.2-1.1
			c-1.6-0.1-3.1,0.4-4.4,1.3c-1.2,0.8-2,2.1-2.3,3.5h-8.3c0.6-4.7,3.6-8.7,8-10.5c2.4-1,4.9-1.4,7.4-1.4c2.6-0.1,5.1,0.5,7.4,1.6
			c2,1,3.8,2.6,4.9,4.6c1.2,2.1,1.8,4.4,1.7,6.8v11.9h3.7v7.8l-11.1,0.1v-4c-1.5,1.5-3.3,2.6-5.3,3.3
			C504.2,53.5,501.8,54,499.4,53.9z M501.5,47.1c3.3,0,6.3-1.6,8.2-4.2c0.9-1.2,1.3-2.6,1.4-4.1v-0.4c-0.6,0.4-1.3,0.7-2,0.9
			c-1.1,0.3-2.3,0.5-3.4,0.6h-0.3c-0.1,0-0.2,0-0.3,0c-2,0.1-4,0.5-5.8,1.3c-1.1,0.5-1.8,1.6-1.8,2.8c0,0.9,0.3,1.7,1.1,2.3
			C499.4,46.9,500.4,47.2,501.5,47.1z"/>
		<path class="st0" d="M530.8,25.2c1.7,6.1,7.7-4.9,7.7,5.1c6-4,14,3,18,2c9-1,20,0,26,7c3,4,4,11,1,13c-12,10-4-9-13-15
			c-3-1-6-2-8,0c-3,5,3,12-1,16c-1,2-5,1-8,1c1-8,0-22-9-18c-9,5-3,25-13,15c-3-3,0-14-0.4-21.6C531,27,530.8,25.2,530.8,25.2z"/>
		<path class="st0" d="M608.4,53.9c-3.2,0.1-6.3-0.6-9.2-2.1c-5.7-4.6-11.7-11.6-9.7-19.6c2-9,13-10,21-9c7,1,15,6,14.8,13.8
			c0,0.5,0,0.9-0.1,1.3c0,0.4-0.1,0.9-0.1,1.3h-4c-2.4,0-5.6,0-8.8,0c-3.8-1.5-8.8,1.5-12.8,0.5c2,4,5,5,9,6.4c1.4,0,2.7-0.3,4-0.8
			c1.1-0.5,2.1-1.3,2.8-2.3h8.9c-0.4,1.9-1.3,3.7-2.6,5.1c-1.5,1.7-3.4,3-5.5,3.8C613.6,53.5,611,54,608.4,53.9z M616.3,34
			c-2.7-4.7-9.7-5.7-14.7-3.7c-2,1-4,2-3,4c2,1,6,0,8.7-0.1C611.8,34.1,616.3,34,616.3,34z"/>
		<path class="st0" d="M632.2,21.5l8.7-0.3v3.6c1.3-1.3,2.8-2.4,4.5-3.1c1.8-0.8,3.8-1.1,5.8-1.1c2.6-0.1,5.1,0.6,7.3,1.8
			c8,4,7,14,6.7,21.9v9.1h-9V36.5c0.1-2.1-0.5-4.1-1.8-5.7c-1.3-1.4-3.1-2.2-5-2.1c-1.4,0-2.8,0.3-4,1c-1.2,0.7-2.1,1.6-2.8,2.8
			c-0.7,1.2-1,2.6-1,4v16.8h-8.9v-16c0-4,0-8-0.2-10.9S632.2,21.5,632.2,21.5z"/>
		<path class="st0" d="M689.7,53.7c-16.1,1.6-12.1-16.4-12.1-26.4c-2,1-5,2-7,1c-1-2-1-7,0-7c5-3,9-6,8-11c3-1,6-1,9-2v8
			c3-1.9,6.5-2.9,10-3c8,1-2,7,2,10c-14-2-17,9-11,20c1,2,6,2,9,0c-7,3,8,7-4,10C692.3,53.5,691,53.7,689.7,53.7z"/>
		<path class="st0" d="M718.2,53.8c-8.7,0.5-19.7-7.5-14.7-13.5c4-6,8,5,15,6c2,0,7-2,5-4c-7-7-24-9-19-23c4-10,18-9,25-2
			c3,3,4,7,4,12c-3-1-6-1-7-2c-2-4-4-6-8-7c-2,0-6,1-5,3c2,8,14,6,19,14c3,6,1,15-6.6,15.5C723.5,53.6,720.9,53.9,718.2,53.8z"/>
		<path class="st0" d="M750.5,37.2c0-3.9,1-8.9,7.3-11.2h0.1l0.1-0.1c0.9-0.4,1.8-1,2.7-1.5c0.7-0.5,1.2-1,1.6-1.7
			c0.4-0.7,0.5-1.4,0.5-2.2c0-1.4-0.8-2.7-2-3.3c-3.7-2.8-9-2.1-11.8,1.6c-0.8,1.1-1.4,2.3-1.6,3.6c-3-1-8-1-8-2
			c-4-10,9-14,16.6-13.1c3,0.1,6,0.6,8.8,1.7c2.4,0.9,4.5,2.4,6,4.4c1.4,2,2.2,4.4,2.2,6.8c0.1,2.2-0.7,4.4-2.2,6.1
			c-1.9,2-4.1,3.6-6.6,4.8l-0.1,0.1h-0.1c-1.1,0.6-2.2,1.2-3.3,1.9c-0.7,0.4-1.2,1.1-1.5,1.8c-0.3,0.8-0.5,1.7-0.5,2.5L750.5,37.2z
			 M755,53.9c-3.3,0.1-6-2.6-6.1-5.9c0-0.1,0-0.1,0-0.2c0-1.6,0.6-3.2,1.8-4.4c2.4-2.4,6.3-2.5,8.7-0.1s2.5,6.3,0.1,8.7
			C758.3,53.3,756.7,54,755,53.9z"/>
	</g>
</g>
</svg>
