<?xml version="1.0" encoding="utf-8"?>
<!-- Generator: Adobe Illustrator 24.1.3, SVG Export Plug-In . SVG Version: 6.00 Build 0)  -->
<svg version="1.1" id="Layer_1" xmlns="http://www.w3.org/2000/svg" xmlns:xlink="http://www.w3.org/1999/xlink" x="0px" y="0px"
	 viewBox="0 0 231.2 94.9" style="enable-background:new 0 0 231.2 94.9;" xml:space="preserve">
<style type="text/css">
	.st0{fill:#FFFFFF;}
</style>
<g id="Layer_2_1_">
	<g id="Layer_1-2">
		<path class="st0" d="M31.3,41c-6-7-16-2-23,3c0-1.2,0.1-2.3,0.3-3.5L0,40.6v33.7h9.4v-8.8C9.3,60,7.3,54,13.3,49c6-4,12,0,12,7
			c0,6-3,13,0,17c1,2,6,1,9,1C33.3,63,40.3,49,31.3,41z"/>
		<path class="st0" d="M71.3,25c-11-5-22,11-26,22c10,1,11-10,20-10c5-1,6,8,2,9c-9,4-21,4-25,14c-2,8,3,15,10.7,14.6
			c2.6,0,5.1-0.5,7.5-1.4c2.8-0.2,3.8-2.2,5.8-4.2v5c3,1,7,0,11,0c-0.2-3,0.2-6.1,1-9h-4C72.3,51,85.3,32,71.3,25z M55.7,66.3
			c-1.1,0.1-2.3-0.3-3.1-1C49.3,56,62.3,57,67.3,55C66.3,61,62.3,66,55.7,66.3z"/>
		<path class="st0" d="M98.3,39c2-3,1-6,1-8.7c-0.5-2.8-2-4.8-5-4.3c-1,0,0,6-3,8c-2,1-4-1-5-2c-2,4-4,11-2,12
			c2.3,1.1,4,3.3,4.5,5.8C88.3,61,86.3,76,98.9,80.3c0.9,0.6,2,1.2,3.2,1.9c1.1-0.2,2.1,0.8,3.1,1.8c1-3,2-7,0-9c-9-7-12-16-8-26
			c4,5,14,3,11-4C107.3,42,103.3,38,98.3,39z"/>
		<path class="st0" d="M132.3,83c-2,3-7,4-9,2c-9-12,3-26,0-39c-1-3-6-2-6-2c-6,16-13,41,5.7,50.6c1.9,0.4,3.9,0.3,5.8-0.3
			c1.9-0.4,3.6-1.6,4.6-3.3v3c21-7,10-34,15-50C130.3,46,140.3,70,132.3,83z"/>
		<path class="st0" d="M186.7,41.5c-2.9-1.6-6.3-2.1-9.6-1.4c-3.1,0.7-5.8,2.5-7.8,5c0-1,1-3,1-4c-3,1-7,1-9.5,1
			c0,0-0.2,2.5-0.5,6.4c1,9.6-9,35.6,5,29.6c7-3,4-16,6-25c1.1-2.4,3.4-3.9,6-4c6,0,6,3,6,6.1l9.5-0.1v-2.3c0.1-2.4-0.5-4.7-1.6-6.8
			C190.1,44,188.6,42.5,186.7,41.5z"/>
		<path class="st0" d="M228.8,48.4c-1.5-2.6-3.8-4.8-6.4-6.2c-2.8-1.5-5.9-2.3-9-2.3c-3.2,0-6.4,0.8-9.3,2.3
			c-2.8,1.5-5.1,3.7-6.7,6.3c-1.6,2.8-2.5,5.9-2.4,9.1c-0.1,3.2,0.7,6.3,2.3,9c1.5,2.6,3.8,4.8,6.5,6.1c5.6,2.7,12,2.9,17.7,0.7
			c2.2-0.9,4.2-2.2,5.8-4c1.4-1.5,2.4-3.4,2.8-5.4h-9.3c-0.7,1.1-1.7,1.9-2.9,2.4c-1.3,0.6-2.8,0.9-4.2,0.9c-1.6,0-3.1-0.3-4.5-1
			c-1.3-0.6-2.4-1.5-3.3-2.6c-0.8-1.1-1.4-2.4-1.7-3.7H231c0-0.5,0.1-0.9,0.1-1.3c0-0.5,0.1-0.9,0.1-1.4
			C231.2,54.2,230.4,51.1,228.8,48.4z M204.3,54c0.4-1.2,1-2.4,1.9-3.3c0.9-1,1.9-1.7,3.1-2.2c1.2-0.5,2.6-0.8,3.9-0.8
			c1.4,0,2.7,0.2,4,0.8c1.2,0.5,2.2,1.3,3,2.2c0.8,1,1.4,2.1,1.8,3.3H204.3z"/>
	</g>
</g>
</svg>
