<?xml version="1.0" encoding="utf-8"?>
<!-- Generator: Adobe Illustrator 24.1.3, SVG Export Plug-In . SVG Version: 6.00 Build 0)  -->
<svg version="1.1" id="Layer_1" xmlns="http://www.w3.org/2000/svg" xmlns:xlink="http://www.w3.org/1999/xlink" x="0px" y="0px"
	 viewBox="0 0 231.2 94.9" style="enable-background:new 0 0 231.2 94.9;" xml:space="preserve">
<style type="text/css">
	.st0{fill:#FFFFFF;}
</style>
<g id="Layer_2_1_">
	<g id="Layer_1-2">
		<path class="st0" d="M27.1,41.8c-2.4-1.3-5-1.9-7.7-1.9c-2.1,0-4.2,0.4-6.1,1.2c-1.8,0.7-3.4,1.9-4.8,3.3v-3.8H0v33.7h9.4V56.7
			c0-1.4,0.3-2.9,1-4.2c0.7-1.2,1.7-2.2,2.9-2.9c1.3-0.7,2.7-1.1,4.1-1.1c2-0.1,3.9,0.7,5.2,2.2c1.4,1.7,2,3.8,1.9,6v17.6h9.5V55.2
			c0-2.8-0.6-5.5-1.9-8C31.1,45,29.3,43.1,27.1,41.8z"/>
		<path class="st0" d="M73.7,53.6c0.1-2.5-0.6-5-1.8-7.2c-1.2-2.1-3-3.7-5.2-4.8c-2.4-1.2-5.1-1.8-7.8-1.7c-2.7,0-5.3,0.5-7.8,1.5
			c-4.6,1.9-7.8,6.1-8.4,11h8.8c0.3-1.5,1.2-2.8,2.4-3.7c1.4-0.9,3-1.4,4.6-1.3c1.6-0.1,3.1,0.3,4.4,1.2c1.1,0.7,1.7,1.8,1.7,3.1
			c0,0.9-0.6,1.7-1.5,2c-1.6,0.6-3.3,0.9-5,0.9c-3.2,0.1-6.3,0.7-9.4,1.7c-2.2,0.7-4.2,1.9-5.7,3.7c-1.3,1.6-1.9,3.6-1.9,5.6
			c-0.1,2.7,1,5.3,3.1,7c2,1.7,4.9,2.5,8.5,2.5c2.5,0,5-0.4,7.4-1.3c2.1-0.7,4-1.9,5.6-3.5v4.2l11.7-0.1v-8.3h-3.8V53.6z M65.1,59.1
			c0,1.6-0.5,3.1-1.4,4.3c-2,2.8-5.2,4.5-8.6,4.5c-1.1,0.1-2.3-0.2-3.2-0.8c-0.7-0.6-1.2-1.5-1.1-2.4c0-1.3,0.7-2.4,1.9-2.9
			c1.9-0.9,4-1.3,6.1-1.4c0.1,0,0.2,0,0.3,0h0.3c1.2-0.1,2.4-0.4,3.6-0.7c0.8-0.2,1.5-0.5,2.2-0.9L65.1,59.1z"/>
		<path class="st0" d="M97.2,32.5h-8.6v3.8c0.1,1.1-0.3,2.3-1,3.2c-0.9,0.8-2,1.2-3.1,1.1h-4.2v8.5h7.6v14.6c0,3.7,1.1,6.5,3.2,8.4
			c2.1,1.9,5.4,2.9,9.9,2.8c1.4,0,2.7-0.1,4.1-0.3c1.6-0.2,3-0.4,4.4-0.6v-8.4c-2.4,0.4-4.8,0.7-7.2,0.7c-1.4,0.1-2.7-0.2-3.9-1
			c-0.8-0.9-1.2-2.2-1.1-3.4V49.1h12.2v-8.5H97.2V32.5z"/>
		<path class="st0" d="M141.2,58.2c0,1.4-0.3,2.9-1,4.2c-0.7,1.2-1.7,2.2-2.9,2.9c-1.3,0.7-2.7,1.1-4.1,1.1c-2,0.1-3.9-0.7-5.2-2.2
			c-1.4-1.7-2-3.8-1.9-6V40.6h-9.6v19.1c0,2.8,0.6,5.5,1.9,8c1.2,2.3,3,4.1,5.2,5.4c2.4,1.3,5,2,7.7,1.9c2.1,0,4.2-0.4,6.1-1.2
			c1.8-0.7,3.4-1.8,4.8-3.2v3.8h8.6V40.6h-9.4L141.2,58.2z"/>
		<path class="st0" d="M186.7,41.5c-3.8-1.9-8.2-2.1-12.1-0.4c-1.7,0.8-3.2,1.9-4.4,3.4v-3.9h-8.6v33.7h9.4V56.1
			c0-1.3,0.3-2.6,0.9-3.8c0.6-1.1,1.4-2,2.5-2.6c1-0.6,2.2-1,3.4-0.9c1.4-0.1,2.9,0.4,4,1.2c1,0.9,1.6,2.3,1.5,3.7V55h9.4v-2.2
			c0.1-2.4-0.5-4.7-1.6-6.8C190.1,44,188.6,42.5,186.7,41.5z"/>
		<path class="st0" d="M228.8,48.4c-1.5-2.6-3.8-4.8-6.4-6.2c-2.8-1.5-5.9-2.3-9-2.3c-3.2,0-6.4,0.8-9.3,2.3
			c-2.8,1.5-5.1,3.7-6.7,6.3c-1.6,2.8-2.5,5.9-2.4,9.1c-0.1,3.2,0.7,6.3,2.3,9c1.5,2.6,3.8,4.8,6.5,6.1c5.6,2.7,12,2.9,17.7,0.7
			c2.2-0.9,4.2-2.2,5.8-4c1.4-1.5,2.4-3.4,2.8-5.4h-9.3c-0.7,1.1-1.7,1.9-2.9,2.4c-1.3,0.6-2.8,0.9-4.2,0.9c-1.6,0-3.1-0.3-4.5-1
			c-1.3-0.6-2.4-1.5-3.3-2.6c-0.8-1.1-1.4-2.4-1.7-3.7H231c0-0.5,0.1-0.9,0.1-1.3c0-0.5,0.1-0.9,0.1-1.4
			C231.2,54.2,230.4,51.1,228.8,48.4z M204.3,54c0.4-1.2,1-2.4,1.9-3.3c0.9-1,1.9-1.7,3.1-2.2c1.2-0.5,2.6-0.8,3.9-0.8
			c1.4,0,2.7,0.2,4,0.8c1.2,0.5,2.2,1.3,3,2.2c0.8,1,1.4,2.1,1.8,3.3H204.3z"/>
	</g>
</g>
</svg>
