<?xml version="1.0" encoding="utf-8"?>
<!-- Generator: Adobe Illustrator 24.1.3, SVG Export Plug-In . SVG Version: 6.00 Build 0)  -->
<svg version="1.1" id="Layer_1" xmlns="http://www.w3.org/2000/svg" xmlns:xlink="http://www.w3.org/1999/xlink" x="0px" y="0px"
	 viewBox="0 0 523.3 83.8" style="enable-background:new 0 0 523.3 83.8;" xml:space="preserve">
<style type="text/css">
	.st0{fill:#FFFFFF;}
</style>
<g id="Layer_2_1_">
	<g id="Layer_1-2">
		<path class="st0" d="M21.8,83.8c-3.4,0.1-6.8-0.3-10.1-1.2c-2.4-0.6-4.6-1.7-6.4-3.4c-1.5-1.4-2.3-3.4-2.2-5.4
			c0-1.5,0.4-2.9,1.3-4.1c1-1.3,2.2-2.2,3.7-2.8c-2.2-0.5-4.3-1.6-6-3.2c-1.4-1.4-2.2-3.4-2.1-5.4c0-1.3,0.5-2.6,1.4-3.7
			c1-1.2,2.5-2,4.1-2.1h0.2H6c0.1,0,0.1,0,0.2,0C5.4,51.3,5,49.8,5,48.4c-0.1-2.8,1.2-5.4,3.4-7.1c2.3-1.8,5.4-3,9.6-3.4v-8h9.2v8
			c2.5,0.2,5,0.8,7.3,1.8c1.8,0.8,3.4,2,4.6,3.6c1.1,1.5,1.6,3.3,1.6,5.2c0,2.1-0.7,4.1-2.2,5.6c-1.7,1.8-3.8,3-6.2,3.7
			c-3.1,0.9-6.3,1.3-9.6,1.3c-1.4,0-2.7-0.1-4.1-0.2c-1-0.1-2-0.3-3-0.5c-0.8-0.2-1.6-0.5-2.4-0.8l-1.5-0.5c-0.5-0.1-1-0.2-1.4-0.2
			c-0.5,0-1,0.2-1.4,0.5c-0.3,0.3-0.5,0.7-0.6,1.2c0,0.9,0.5,1.6,1.2,2.1c1.1,0.6,2.3,1,3.5,1.2c2,0.3,4,0.5,6,0.5
			c0.5,0,1.1,0.1,1.7,0.1s1.2,0,1.9,0c5.9,0,10.4,1,13.6,2.8c3,1.5,4.9,4.6,4.8,8c0,2.2-0.8,4.2-2.3,5.8c-1.8,1.8-4.1,3.1-6.6,3.8
			C28.7,83.5,25.2,83.9,21.8,83.8z M21.9,76.9c1.8,0,3.6-0.1,5.3-0.5c1.2-0.2,2.3-0.7,3.3-1.4c0.7-0.5,1.1-1.4,1.1-2.2
			c0-1.3-0.8-2.4-2.5-3.1c-2.3-0.8-4.8-1.2-7.2-1.1c-1.8,0-3.6,0.1-5.3,0.5c-1.2,0.2-2.3,0.7-3.3,1.4c-0.7,0.5-1.1,1.4-1.1,2.2
			c0,0.9,0.4,1.7,1.2,2.2c1,0.7,2.1,1.2,3.3,1.4C18.3,76.8,20.1,76.9,21.9,76.9z M22.6,52.7c2.2,0.1,4.4-0.3,6.4-1.1
			c1.4-0.5,2.3-1.8,2.3-3.2c-0.1-1.5-1-2.7-2.3-3.3c-2-0.9-4.2-1.3-6.4-1.2c-2.2-0.1-4.3,0.3-6.3,1.2c-1.3,0.5-2.2,1.8-2.3,3.3
			c0,1.4,0.9,2.7,2.3,3.2C18.3,52.4,20.4,52.8,22.6,52.7z"/>
		<path class="st0" d="M61.7,71c-3.2,0.1-6.4-0.6-9.2-2.1c-2.6-1.3-4.7-3.3-6.2-5.8c-1.5-2.6-2.2-5.6-2.2-8.6c0-3,0.8-6,2.3-8.7
			c1.5-2.5,3.7-4.6,6.4-6c2.7-1.5,5.8-2.2,8.9-2.2c3,0,6,0.7,8.6,2.2c2.5,1.4,4.6,3.4,6.1,5.9c1.5,2.6,2.3,5.5,2.2,8.5
			c0,0.5,0,0.9-0.1,1.3s0,0.9,0,1.3H52.8c0.3,1.3,0.8,2.5,1.7,3.5c0.8,1.1,1.9,1.9,3.1,2.5c1.3,0.6,2.8,1,4.3,0.9
			c1.4,0,2.8-0.3,4-0.8c1.1-0.5,2.1-1.3,2.8-2.3h8.9c-0.4,1.9-1.3,3.7-2.6,5.1c-1.5,1.7-3.4,3-5.6,3.8C67,70.5,64.3,71,61.7,71z
			 M69.9,51c-0.3-1.2-0.9-2.3-1.7-3.2c-0.8-0.9-1.8-1.6-2.9-2.1c-1.2-0.5-2.5-0.8-3.8-0.8s-2.6,0.2-3.7,0.7c-1.1,0.5-2.2,1.2-3,2.1
			c-0.8,0.9-1.4,2-1.7,3.2L69.9,51L69.9,51z"/>
		<path class="st0" d="M101.1,71c-4.2,0-7.4-0.9-9.4-2.7c-2-1.8-3-4.5-3-8v-14h-7.3v-8.1h4c1.1,0.1,2.2-0.3,3-1c0.7-0.8,1.1-1.9,1-3
			v-3.7h8.2v7.7h11.6v8.1H97.6v12.2c-0.1,1.2,0.3,2.4,1.1,3.3c1.1,0.8,2.4,1.1,3.7,1c2.3,0,4.6-0.2,6.8-0.6v8
			c-1.3,0.2-2.7,0.4-4.2,0.6C103.7,70.9,102.4,71,101.1,71z"/>
		<path class="st0" d="M146.1,71c-2.9,0-5.7-0.7-8.2-2.2c-2.4-1.4-4.4-3.5-5.7-6c-2.8-5.4-2.8-11.8,0-17.1c1.3-2.5,3.3-4.6,5.7-6
			c2.5-1.4,5.3-2.2,8.2-2.2c1.8,0,3.5,0.3,5.2,1c1.6,0.6,3,1.5,4.3,2.7V24.8h8.9v45.6h-8.2v-3.7c-1.3,1.4-2.8,2.4-4.5,3.2
			C150,70.6,148.1,71,146.1,71z M147.5,62.8c1.5,0,2.9-0.4,4.2-1.1c1.2-0.7,2.3-1.8,2.9-3c1.4-2.7,1.4-5.9,0-8.6
			c-0.7-1.2-1.7-2.3-2.9-3c-2.6-1.5-5.8-1.5-8.4,0c-1.2,0.7-2.3,1.8-3,3c-1.5,2.7-1.5,5.9,0,8.6C141.8,61.2,144.5,62.8,147.5,62.8z"
			/>
		<path class="st0" d="M173.4,22.5h12.2l-5.8,12.1h-0.6L173.4,22.5z M175,38.2h8.9v32.1H175V38.2z"/>
		<path class="st0" d="M194.5,38.2h8.1V42c1.1-1.4,2.6-2.5,4.2-3.2c1.7-0.8,3.5-1.1,5.4-1.1c2.1,0,4.2,0.5,6.1,1.5
			c1.8,1,3.3,2.4,4.2,4.2c1,2,1.6,4.2,1.5,6.5V52h-8.9v-1.3c0.1-1.3-0.4-2.6-1.4-3.5c-1.1-0.9-2.4-1.3-3.8-1.2
			c-1.2,0-2.3,0.3-3.3,0.9c-1,0.6-1.8,1.5-2.4,2.5c-0.6,1.1-0.9,2.3-0.9,3.6v17.3h-8.8V38.2z"/>
		<path class="st0" d="M243.7,71c-3.2,0.1-6.4-0.6-9.2-2.1c-2.6-1.3-4.7-3.3-6.2-5.8c-1.5-2.6-2.2-5.6-2.2-8.6c0-3,0.8-6,2.3-8.7
			c1.5-2.5,3.7-4.6,6.4-6c2.7-1.5,5.8-2.2,8.9-2.2c3,0,6,0.7,8.6,2.2c2.5,1.4,4.6,3.4,6.1,5.9c1.5,2.6,2.3,5.5,2.2,8.5
			c0,0.5,0,0.9-0.1,1.3s-0.1,0.9-0.1,1.3h-25.6c0.3,1.3,0.8,2.5,1.6,3.5c0.8,1.1,1.9,1.9,3.1,2.5c1.3,0.6,2.8,1,4.3,0.9
			c1.4,0,2.7-0.3,4-0.8c1.1-0.5,2.1-1.3,2.8-2.3h8.8c-0.4,1.9-1.3,3.7-2.6,5.1c-1.5,1.7-3.4,3-5.6,3.8C248.9,70.5,246.3,71,243.7,71
			z M251.9,51c-0.3-1.2-0.9-2.3-1.7-3.2s-1.8-1.6-2.9-2.1c-1.2-0.5-2.5-0.8-3.8-0.7c-1.3,0-2.5,0.2-3.7,0.7c-1.1,0.5-2.2,1.2-3,2.1
			c-0.8,0.9-1.4,2-1.8,3.2H251.9z"/>
		<path class="st0" d="M282.5,71c-3.1,0.1-6.2-0.7-8.9-2.2c-2.6-1.4-4.7-3.5-6.2-6c-4.7-7.9-2.1-18.1,5.8-22.8
			c0.2-0.1,0.3-0.2,0.5-0.3c2.7-1.5,5.7-2.2,8.8-2.2c2.8,0,5.5,0.6,8,1.8c2.3,1.1,4.3,2.8,5.8,4.8c1.4,2.1,2.4,4.4,2.6,6.9H290
			c-0.4-1.6-1.3-3-2.7-3.9c-1.4-1-3.1-1.6-4.8-1.5c-1.5,0-3,0.4-4.3,1.1c-1.3,0.7-2.3,1.8-3,3.1c-1.5,2.7-1.5,6,0,8.7
			c0.7,1.3,1.7,2.4,3,3.1c1.3,0.8,2.8,1.2,4.3,1.1c1.7,0,3.4-0.5,4.8-1.5c1.3-1,2.3-2.4,2.7-4h8.9c-0.3,2.5-1.2,4.9-2.7,7
			s-3.5,3.7-5.8,4.8C288,70.4,285.3,71,282.5,71z"/>
		<path class="st0" d="M321.5,71c-4.2,0-7.4-0.9-9.4-2.7c-2-1.8-3-4.5-3-8v-14h-7.2v-8.1h4c1.1,0.1,2.2-0.3,3-1c0.7-0.8,1.1-1.9,1-3
			v-3.7h8.2v7.7h11.4v8.1H318v12.2c-0.1,1.2,0.3,2.4,1.1,3.3c1.1,0.8,2.4,1.1,3.7,1c2.3,0,4.6-0.2,6.8-0.6v8
			c-1.3,0.2-2.7,0.4-4.2,0.6C324.1,70.9,322.8,71,321.5,71z"/>
		<path class="st0" d="M335.7,22.5h12.2l-5.8,12.1h-0.6L335.7,22.5z M337.3,38.2h8.9v32.1h-8.9V38.2z"/>
		<path class="st0" d="M371.5,71c-3.1,0-6.2-0.7-9-2.2c-2.6-1.4-4.8-3.5-6.3-6c-3-5.3-3-11.8,0-17.1c1.5-2.6,3.7-4.6,6.3-6
			c5.7-2.9,12.3-2.9,18,0c2.6,1.4,4.8,3.4,6.3,6c3,5.3,3,11.8,0,17.1c-1.5,2.5-3.7,4.6-6.3,6C377.8,70.3,374.7,71,371.5,71z
			 M371.5,62.8c1.5,0,3-0.3,4.3-1.1c1.2-0.7,2.3-1.8,3-3c1.5-2.7,1.5-6,0-8.7c-0.7-1.2-1.8-2.3-3-3c-1.3-0.8-2.8-1.1-4.3-1.1
			s-3,0.3-4.4,1.1c-1.3,0.7-2.3,1.7-3,3c-1.5,2.7-1.5,6,0,8.8c0.7,1.3,1.7,2.3,3,3C368.5,62.4,370,62.8,371.5,62.8L371.5,62.8z"/>
		<path class="st0" d="M396.7,38.2h8.2v3.6c1.3-1.3,2.8-2.4,4.5-3.1c1.8-0.8,3.8-1.1,5.8-1.1c2.6-0.1,5.1,0.6,7.3,1.8
			c2.1,1.2,3.8,3,4.9,5.1c1.2,2.4,1.8,5,1.8,7.6v18.2h-9.1V53.6c0.1-2.1-0.5-4.1-1.8-5.7c-1.3-1.4-3.1-2.2-5-2.1c-1.4,0-2.7,0.3-4,1
			c-1.2,0.7-2.1,1.6-2.8,2.8c-0.7,1.2-1,2.6-1,3.9v16.8h-8.9L396.7,38.2z"/>
		<path class="st0" d="M452.4,71.2c-4.1,0.1-8.1-0.9-11.5-3c-3.1-1.9-5.2-5.2-5.5-8.9h9.1c0.3,1.5,1.3,2.9,2.6,3.7
			c1.6,0.9,3.5,1.4,5.4,1.3c0.9,0,1.9-0.1,2.8-0.3s1.7-0.5,2.4-1c0.6-0.4,1-1.1,1-1.9c0-0.5-0.2-1-0.7-1.3c-0.6-0.4-1.3-0.7-2-0.9
			c-1.2-0.3-2.4-0.6-3.7-0.8l-0.8-0.1c-0.3,0-0.6-0.1-0.9-0.2c-2.5-0.5-4.9-1.1-7.3-1.9c-1.8-0.6-3.4-1.6-4.7-3
			c-1.3-1.5-1.9-3.4-1.8-5.3c-0.1-2.2,0.7-4.2,2.2-5.8s3.5-2.8,5.6-3.4c2.3-0.7,4.8-1,7.2-1c3.8-0.1,7.5,0.9,10.8,2.8
			c3,1.9,4.7,4.8,5.1,8.8h-9.1c-0.4-1.5-1.4-2.7-2.8-3.3c-1.5-0.7-3.2-1.1-4.9-1.1c-1.3,0-2.5,0.2-3.7,0.7c-1,0.3-1.7,1.2-1.7,2.2
			c0,0.6,0.3,1.2,0.8,1.6c0.7,0.5,1.4,0.8,2.2,1c0.9,0.2,2.2,0.5,3.7,0.8L453,51c0.2,0,0.5,0.1,0.9,0.2l0.5,0.1l0.5,0.1
			c2.3,0.4,4.6,1,6.8,1.8c1.7,0.6,3.2,1.6,4.5,2.9c1.2,1.3,1.8,3.1,1.7,4.9c0.1,2.1-0.7,4.1-2.1,5.6c-1.5,1.6-3.4,2.8-5.6,3.5
			C457.7,70.9,455,71.3,452.4,71.2z"/>
		<polygon class="st0" points="523.3,54.3 523.3,54.3 517.6,48.6 506.1,37.1 500.4,42.9 507.8,50.3 484.5,50.3 484.5,58.3 
			507.8,58.3 500.4,65.8 506.1,71.5 517.6,60 517.6,60 		"/>
	</g>
</g>
</svg>
