<?xml version="1.0" encoding="utf-8"?>
<!-- Generator: Adobe Illustrator 24.1.3, SVG Export Plug-In . SVG Version: 6.00 Build 0)  -->
<svg version="1.1" id="Layer_1" xmlns="http://www.w3.org/2000/svg" xmlns:xlink="http://www.w3.org/1999/xlink" x="0px" y="0px"
	 viewBox="0 0 523.3 83.8" style="enable-background:new 0 0 523.3 83.8;" xml:space="preserve">
<style type="text/css">
	.st0{fill:#FFFFFF;}
</style>
<g id="Layer_2_1_">
	<g id="Layer_1-2">
		<path class="st0" d="M22.3,83.7C15,83,6,83,4,76c-1-5,0-10,5-13c-6,0-9-6-9-11c1-4,2-9,7-11C3,31,8,18,18,12c2-1,2-8,2-12
			c3,2,7,4,7,7c0,13,11,21,13,33c4,20-20,9-31,10c0,0,0,3,1,4c9,4,19,2,27,9c4,3,5,8,4,13c-1,4-5,5-8.5,6.5
			C29.2,83.4,25.7,83.8,22.3,83.7z M22.4,76.2C26,76,31,77,32,72c1-2-1-3-2-4c-4-2-8-2-13-2c-5,1-6,9,0.1,9.5
			C18.8,76,20.6,76.2,22.4,76.2z M23.1,41.9C25,43,28,44,30,42c6-8-4-16-10-17c-6,0-7,9-3.2,13.4C18.6,40,20.7,41.3,23.1,41.9z"/>
		<path class="st0" d="M62.2,71c-3.2,0.1-6.4-0.7-9.2-2.1C46,63,42,52,47,43c3-6,10-4,15.2-5.5c3,0.1,6,0.9,8.6,2.3
			c2.5,1.4,4.6,3.4,6.1,5.9c1.5,2.6,2.3,5.5,2.2,8.5c0,0.5,0,0.9-0.1,1.3s0,0.9,0,1.3H66.2C62,56,57,59,53,56c1,2.7,2.8,5.1,5.1,6.8
			c1.3,0.6,2.8,1,4.3,0.9c1.4,0,2.8-0.3,4-0.8c1.1-0.5,2.1-1.3,2.8-2.3h8.9c-0.4,1.9-1.3,3.7-2.6,5.1c-1.5,1.7-3.4,3-5.6,3.8
			C67.4,70.5,64.8,71,62.2,71z M70.4,51c-0.3-1.2-0.9-2.3-1.7-3.2c-0.8-0.9-1.8-1.6-2.9-2.1c-1.2-0.5-2.5-0.8-3.8-0.8
			C59,44,54,46,54,50c3,0,5,2,8,0.9C66.2,51,70.4,51,70.4,51z"/>
		<path class="st0" d="M101.6,71c-4.2,0-7.4-0.9-9.4-2.7c-2-1.8-3-4.5-3-8v-14h-7.3v-8.1h4c1.1,0.1,2.2-0.3,3-1c0.7-0.8,1.1-1.9,1-3
			v-3.7h8.2v7.7h11.6v8.1H98.1v12.2c-0.1,1.2,0.3,2.4,1.1,3.3c1.1,0.8,2.4,1.1,3.7,1c2.3,0,4.6-0.2,6.8-0.6v8
			c-1.3,0.2-2.7,0.4-4.2,0.6C104.2,70.9,102.9,71,101.6,71z"/>
		<path class="st0" d="M146.6,71c-2.9,0-5.7-0.7-8.2-2.2c-2.4-1.4-4.4-3.5-5.7-6c-2.8-5.4-2.8-11.8,0-17.1c1.3-2.5,3.3-4.6,5.7-6
			c2.5-1.4,5.3-2.2,8.2-2.2c1.8,0,3.5,0.3,5.2,1c1.6,0.6,3,1.5,4.3,2.7V24.8h8.9v45.6h-8.2v-3.7c-1.3,1.4-2.8,2.4-4.5,3.2
			C150.5,70.6,148.6,71,146.6,71z M148,62.8c1.5,0,2.9-0.4,4.2-1.1c1.2-0.7,2.3-1.8,2.9-3c1.4-2.7,1.4-5.9,0-8.6
			c-0.7-1.2-1.7-2.3-2.9-3c-2.6-1.5-5.8-1.5-8.4,0c-1.2,0.7-2.3,1.8-3,3c-1.5,2.7-1.5,5.9,0,8.6C142.3,61.2,145,62.8,148,62.8z"/>
		<path class="st0" d="M174.4,22.5c4.9,0.4,9.7,0.6,14.6,0.5c-4,4-4,9-9,12c-1.1-2.1-2-4.2-2.7-6.4
			C175.9,25.5,174.4,22.5,174.4,22.5z M175.6,38.2C179,38,183,37,184,38c3,5,0,11,0.4,16.3v16h-8.9v-16c0-4,0-8,0-11
			S175.6,38.2,175.6,38.2z"/>
		<path class="st0" d="M197.2,38.3C200,38,204,38,207,38c0,1-1,3-1,4c7-4,18-7,22,0c3,7-4,13-11,10v-5c-10-5-15,7-13.1,14.7v8.7H195
			v-5c0-3,0-7,0.1-11c0.1-3.7,0.5-7.4,1.1-11C196.7,40.3,197.2,38.3,197.2,38.3z"/>
		<path class="st0" d="M244.2,71c-3.2,0.1-6.4-0.6-9.2-2.1c-2.6-1.3-4.7-3.3-6.2-5.8c-1.6-2.5-2.1-5.6-1.4-8.5C234,42,251,37,264,42
			c6,2,2,10-2,13c-7,5-17,1-26,2c0,1,1,2,1,3.3c0.8,1.1,1.9,1.9,3.1,2.5c1.3,0.6,2.8,1,4.3,0.9c1.4,0,2.7-0.3,4-0.8
			C251,59,256,62,260,61c-1,2-2,3-2.6,4.7c-1.5,1.7-3.4,3-5.6,3.8C249.4,70.5,246.8,71,244.2,71z M255.4,51.7C258,49,253,45,250,46
			c-4,1-9,0-12,5c2.8-0.1,5.6,0.1,8.4,0.4L255.4,51.7z"/>
		<path class="st0" d="M283.1,71C276,71,267,67,268,59c0-5,4-9,9-11c13-3,36-9,39,6c1,5-10,2-15,1c0.2-1,0.5-2.1,1-3c-7-5-17-3-23,3
			c-4,5,3,10,8,8c7-3,13-5,20-2c-6,2-10,7-15.7,8.4C288.7,70.4,285.9,71,283.1,71z"/>
		<path class="st0" d="M326.8,74.5C323,73,315,74,317,68c1-6,9-7,15-9l-9-3c6-3,11-2,17-2c3-1,2-8,8-5c1,0,0,4-1,7
			c2.7,0.2,5.4-0.2,8-1c0,3-1,6-3,6c-8,1-16,2-22,8c4,2,8,2,12,2c-2,3-3,7-10.2,4.3C329.9,75.1,328.2,74.8,326.8,74.5z"/>
		<path class="st0" d="M354.1,34.1C356,33,358,31,360,31c1.2,5.9,1.8,12,2,18c-3-1-1-6-3.7-7.2C356.5,38.1,354.1,34.1,354.1,34.1z
			 M359.5,54c1.5-1,3.5-1,4.5-2c1,9.5-2.7,18.8-10,25c-1,1-5,0-8,0c5-6,10-11,12.7-18.3C359.1,57.2,359.4,55.6,359.5,54z"/>
		<path class="st0" d="M376.2,75.5C373,77,369,76,368,74c-4-11,2-20,7-29c2.5-3.3,7.2-4,10.5-1.5c0.6,0.4,1.1,0.9,1.5,1.5
			c7,8,5,20-3.2,26.9C381.6,73.7,379,74.9,376.2,75.5z M377.6,68.5C383,66,385,59,384,54c-1-1-3-3-5-2c-4,3-10,11-4.4,16.5
			C375.6,68.8,376.6,68.8,377.6,68.5L377.6,68.5z"/>
		<path class="st0" d="M397.5,38.5l7.9-0.3v3.6c1.3-1.4,2.8-2.4,4.5-3.1c1.8-0.8,3.8-1.1,5.8-1.1c2.6-0.1,5.1,0.6,7.3,1.8
			c2.1,1.2,3.8,3,4.9,5.1c1.2,2.4,1.8,5,1.8,7.6v18.2h-9.1V53.6c0.1-2.1-0.5-4.1-1.8-5.7c-1.3-1.4-3.1-2.2-5-2.1c-1.4,0-2.7,0.3-4,1
			C400,54,411,78,399,69c-4-3-1-16-1.4-25.3C397.5,40.6,397.5,38.5,397.5,38.5z"/>
		<path class="st0" d="M452.9,71.2c-4.1,0.1-8.1-0.9-11.5-3c-3.1-1.9-5.2-5.2-5.5-8.9h9.1c0.3,1.5,1.3,2.9,2.6,3.7
			c1.6,0.9,3.5,1.4,5.4,1.3c0.9,0,1.9-0.1,2.8-0.3s1.7-0.5,2.4-1c0.6-0.4,1-1.1,1-1.9c0-0.5-0.2-1-0.7-1.3c-0.6-0.4-1.3-0.7-2-0.9
			c-1.2-0.3-2.4-0.6-3.7-0.8L452,58c-0.3,0-0.6-0.1-0.9-0.2c-2.5-0.5-4.9-1.1-7.3-1.9c-1.8-0.6-3.4-1.6-4.7-3
			c-1.3-1.5-1.9-3.4-1.8-5.3c-0.1-2.2,0.7-4.2,2.2-5.8s3.5-2.8,5.6-3.4c2.3-0.7,4.8-1,7.2-1c3.8-0.1,7.5,0.9,10.8,2.8
			c3,1.9,4.7,4.8,5.1,8.8h-9.1c-0.4-1.5-1.4-2.7-2.8-3.3c-1.5-0.7-3.2-1.1-4.9-1.1c-1.3,0-2.5,0.2-3.7,0.7c-1,0.3-1.7,1.2-1.7,2.2
			c0,0.6,0.3,1.2,0.8,1.6c0.7,0.5,1.4,0.8,2.2,1c0.9,0.2,2.2,0.5,3.7,0.8l0.8,0.1c0.2,0,0.5,0.1,0.9,0.2l0.5,0.1l0.5,0.1
			c2.3,0.4,4.6,1,6.8,1.8c1.7,0.6,3.2,1.6,4.5,2.9c1.2,1.3,1.8,3.1,1.7,4.9c0.1,2.1-0.7,4.1-2.1,5.6c-1.5,1.6-3.4,2.8-5.6,3.5
			C458.2,70.9,455.5,71.3,452.9,71.2z"/>
		<polygon class="st0" points="523.3,54.3 523.3,54.3 517.6,48.6 506.1,37.1 500.4,42.9 507.8,50.3 484.5,50.3 484.5,58.3 
			507.8,58.3 500.4,65.8 506.1,71.5 517.6,60 517.6,60 		"/>
	</g>
</g>
</svg>
