<svg xmlns="http://www.w3.org/2000/svg" viewBox="0 0 940.55 108.25"><defs><style>.cls-1{fill:#fff;}</style></defs><g id="Layer_2" data-name="Layer 2"><g id="Layer_1-2" data-name="Layer 1"><path class="cls-1" d="M44.5,122.65a41.67,41.67,0,0,1-20-4.78,35.42,35.42,0,0,1-14-13.26,36.49,36.49,0,0,1-5.06-19,36.49,36.49,0,0,1,5.06-19A35.28,35.28,0,0,1,24.53,53.27a41.79,41.79,0,0,1,20-4.78,41.78,41.78,0,0,1,20,4.78A35.28,35.28,0,0,1,78.51,66.53a36.49,36.49,0,0,1,5.06,19,36.18,36.18,0,0,1-5.06,18.89A35.82,35.82,0,0,1,64.46,117.8,41.37,41.37,0,0,1,44.5,122.65Zm0-18.26A18.86,18.86,0,0,0,54.12,102a18.2,18.2,0,0,0,6.71-6.7,20.14,20.14,0,0,0,0-19.4,18.2,18.2,0,0,0-6.71-6.7,18.87,18.87,0,0,0-9.62-2.43,19.27,19.27,0,0,0-9.7,2.43,17.63,17.63,0,0,0-6.7,6.63,20.71,20.71,0,0,0,0,19.47,17.46,17.46,0,0,0,6.7,6.7A19.27,19.27,0,0,0,44.5,104.39Z" transform="translate(-5.42 -14.97)"/><path class="cls-1" d="M100.54,49.91h18.12v8.28A25.62,25.62,0,0,1,128,51a28.49,28.49,0,0,1,11.91-2.49,28.16,28.16,0,0,1,13.62,3.28,23.05,23.05,0,0,1,9.41,9.41,29.63,29.63,0,0,1,3.35,14.4v4.85H146.47V77.58q0-5.13-3.14-7.77a12.65,12.65,0,0,0-8.42-2.64,13.73,13.73,0,0,0-7.27,2,14.8,14.8,0,0,0-5.28,5.56,16.08,16.08,0,0,0-2,8v38.5H100.54Z" transform="translate(-5.42 -14.97)"/><path class="cls-1" d="M206.51,122.65a35.05,35.05,0,0,1-18.12-4.78,33.85,33.85,0,0,1-12.76-13.26,39.05,39.05,0,0,1-4.63-19,39.05,39.05,0,0,1,4.63-19,33.85,33.85,0,0,1,12.76-13.26,35.05,35.05,0,0,1,18.12-4.78A30.59,30.59,0,0,1,218,50.63a30.21,30.21,0,0,1,9.48,6V20h19.82V121.22H229.18v-8.13a29.69,29.69,0,0,1-10.05,7.06A31.38,31.38,0,0,1,206.51,122.65Zm3.13-18.26A18,18,0,0,0,219,101.9a17.59,17.59,0,0,0,6.56-6.78,20.6,20.6,0,0,0,0-19.11A17.63,17.63,0,0,0,219,69.24,18.34,18.34,0,0,0,193.67,76a20.07,20.07,0,0,0,0,19.11,18.08,18.08,0,0,0,16,9.27Z" transform="translate(-5.42 -14.97)"/><path class="cls-1" d="M267.12,15h27.1L281.38,41.79H280Zm3.56,34.94h19.83v71.31H270.68Z" transform="translate(-5.42 -14.97)"/><path class="cls-1" d="M313.9,49.91H332v8A29.15,29.15,0,0,1,342.06,51,33,33,0,0,1,355,48.49a32.23,32.23,0,0,1,16.26,4,27.87,27.87,0,0,1,10.91,11.41,35.82,35.82,0,0,1,3.92,17v40.36H366V84q0-8-4.06-12.62t-11.06-4.64A17.06,17.06,0,0,0,342.06,69a16.36,16.36,0,0,0-6.13,6.2A17.58,17.58,0,0,0,333.72,84v37.22H313.9Z" transform="translate(-5.42 -14.97)"/><path class="cls-1" d="M425.56,122.65q-11.4,0-17.9-5.35t-6.49-14.76a18.41,18.41,0,0,1,4-11.84q4-5,12-7.77A74.6,74.6,0,0,1,437,79.44q7.41-.57,10.48-2t3.07-4.14a7.57,7.57,0,0,0-3.64-6.49,18.53,18.53,0,0,0-19,.29,13.35,13.35,0,0,0-5.13,7.77H404.17a28.85,28.85,0,0,1,17.76-23.24,41.52,41.52,0,0,1,16.47-3.14,36,36,0,0,1,16.54,3.63,25.93,25.93,0,0,1,10.91,10.13,29.65,29.65,0,0,1,3.78,15.19v26.38h8.13v17.4l-24.67.15v-8.85a31.58,31.58,0,0,1-11.84,7.42A44.74,44.74,0,0,1,425.56,122.65Zm4.71-15.12a22.43,22.43,0,0,0,18.25-9.41,15.62,15.62,0,0,0,3-9.13v-.85A12.57,12.57,0,0,1,447,90.06a48.42,48.42,0,0,1-7.56,1.36,4.31,4.31,0,0,0-.72.07,4.11,4.11,0,0,1-.71.07q-9,.72-12.91,2.92t-3.92,6.21a6,6,0,0,0,2.36,5.06Q425.84,107.54,430.27,107.53Z" transform="translate(-5.42 -14.97)"/><path class="cls-1" d="M494.16,49.91h18.11v8.28a27.93,27.93,0,0,1,21.54-9.7,30,30,0,0,1,13.55,3,29.6,29.6,0,0,1,10.12,8.27,27.57,27.57,0,0,1,10.41-8.34,31.69,31.69,0,0,1,13.55-2.92,34.6,34.6,0,0,1,16.69,3.85,27,27,0,0,1,11,11A34.24,34.24,0,0,1,613.1,80v41.21h-20V83.14q0-7.41-4-11.9a13.25,13.25,0,0,0-10.41-4.5A13.51,13.51,0,0,0,571,69a16.63,16.63,0,0,0-5.49,6.2A18.49,18.49,0,0,0,563.47,84v37.22h-20V83.14q0-7.41-4-11.9a13.25,13.25,0,0,0-10.41-4.5A13.61,13.61,0,0,0,521.47,69a15.81,15.81,0,0,0-5.49,6.2A19.06,19.06,0,0,0,514,84v37.22H494.16Z" transform="translate(-5.42 -14.97)"/><path class="cls-1" d="M667.72,122.65A43.27,43.27,0,0,1,647.33,118a33.34,33.34,0,0,1-13.69-13,37.14,37.14,0,0,1-4.85-19,36.76,36.76,0,0,1,5.13-19.26A36.21,36.21,0,0,1,648,53.34a40.8,40.8,0,0,1,19.68-4.85,38.45,38.45,0,0,1,19.11,4.78,35.68,35.68,0,0,1,13.55,13.19,36.16,36.16,0,0,1,5,18.82,28.76,28.76,0,0,1-.14,3c-.09,1-.19,1.9-.28,2.85H648A19.83,19.83,0,0,0,651.68,99a18.77,18.77,0,0,0,6.92,5.49,21.62,21.62,0,0,0,9.55,2.07,21.07,21.07,0,0,0,9-1.85,14.32,14.32,0,0,0,6.13-5.14H703A23.42,23.42,0,0,1,697.1,111a33.76,33.76,0,0,1-12.33,8.49A43.58,43.58,0,0,1,667.72,122.65Zm18.11-44.5a18.61,18.61,0,0,0-3.77-7.06,17.76,17.76,0,0,0-6.35-4.7,20.5,20.5,0,0,0-8.42-1.64A20.8,20.8,0,0,0,659,66.39a18.88,18.88,0,0,0-6.63,4.7,17.64,17.64,0,0,0-3.92,7.06Z" transform="translate(-5.42 -14.97)"/><path class="cls-1" d="M721.77,49.91h18.11v8A29.2,29.2,0,0,1,749.94,51a32.94,32.94,0,0,1,12.91-2.49,32.17,32.17,0,0,1,16.25,4A27.74,27.74,0,0,1,790,63.89a35.71,35.71,0,0,1,3.93,17v40.36H773.83V84q0-8-4.07-12.62t-11-4.64A17,17,0,0,0,749.94,69a16.29,16.29,0,0,0-6.13,6.2A17.48,17.48,0,0,0,741.6,84v37.22H721.77Z" transform="translate(-5.42 -14.97)"/><path class="cls-1" d="M848.28,122.65q-14.13,0-20.83-6.06t-6.7-17.76V67.88H804.63v-18h8.85q4.41,0,6.63-2.28t2.21-6.7V32.8h18.25V49.91h25.68v18H840.57V95c0,3.42.79,5.85,2.36,7.27s4.3,2.14,8.2,2.14A81.53,81.53,0,0,0,866.25,103v17.82q-4.29.72-9.28,1.29A77.75,77.75,0,0,1,848.28,122.65Z" transform="translate(-5.42 -14.97)"/><path class="cls-1" d="M911.74,123.22q-15.12,0-25.67-6.7T874,96.69H894.2a12.58,12.58,0,0,0,5.85,8.13,21.59,21.59,0,0,0,11.83,3,28,28,0,0,0,6.28-.72,14.78,14.78,0,0,0,5.28-2.21,4.84,4.84,0,0,0,2.13-4.2,3.58,3.58,0,0,0-1.49-3,13.83,13.83,0,0,0-4.5-2A76.7,76.7,0,0,0,911.46,94c-.58-.09-1.19-.19-1.86-.28a16.26,16.26,0,0,1-2-.43A121.72,121.72,0,0,1,891.35,89a25.55,25.55,0,0,1-10.49-6.7q-4.07-4.42-4.06-11.84a17.93,17.93,0,0,1,4.85-12.91,28,28,0,0,1,12.41-7.34,55,55,0,0,1,16-2.28q14.12,0,24.1,6.27t11.41,19.54H925.43a11.07,11.07,0,0,0-6.13-7.41,24.19,24.19,0,0,0-11-2.43,21.29,21.29,0,0,0-8.2,1.5q-3.64,1.5-3.64,4.92a4.25,4.25,0,0,0,1.71,3.49A12.67,12.67,0,0,0,903,75.94q3.13.8,8.27,1.78l1.79.29c.52.1,1.16.24,1.92.43.38.09.71.16,1,.21s.62.12,1,.22a89.14,89.14,0,0,1,15.11,4.06,26.21,26.21,0,0,1,10,6.49Q946,93.56,946,100.26a18.06,18.06,0,0,1-4.64,12.55,28.78,28.78,0,0,1-12.4,7.77A53.22,53.22,0,0,1,911.74,123.22Z" transform="translate(-5.42 -14.97)"/></g></g></svg>