<?xml version="1.0" encoding="utf-8"?>
<!-- Generator: Adobe Illustrator 24.1.3, SVG Export Plug-In . SVG Version: 6.00 Build 0)  -->
<svg version="1.1" id="Layer_1" xmlns="http://www.w3.org/2000/svg" xmlns:xlink="http://www.w3.org/1999/xlink" x="0px" y="0px"
	 viewBox="0 0 165.5 59.6" style="enable-background:new 0 0 165.5 59.6;" xml:space="preserve">
<style type="text/css">
	.st0{fill:#FFFFFF;}
</style>
<g id="Layer_2_1_">
	<g id="Layer_1-2">
		<path class="st0" d="M17,40.7c-4.1,0.1-8.1-0.9-11.6-3c-3.1-1.9-5.2-5.3-5.4-8.9h9.1c0.3,1.5,1.3,2.9,2.6,3.7
			c1.6,1,3.5,1.4,5.3,1.3c1.6-0.8,3.6-0.8,5.6-1.8s1-2,0-3c-2-2-6,0-7.5-1.8c-2.5-0.5-4.9-1.1-7.3-1.9c-1.8-0.6-3.4-1.6-4.7-3
			c-1.3-1.5-1.9-3.3-1.8-5.3c-0.1-2.2,0.7-4.2,2.2-5.8C5,9.6,6.9,8.4,9.1,7.8c2.3-0.7,4.8-1,7.2-1C23.7,7,35.7,12,32.7,18
			c-4,5-10-4-17.2-4c-1.3,0-2.5,0.2-3.7,0.7c-1,0.3-1.6,1.2-1.6,2.2c0,0.6,0.3,1.2,0.8,1.6c0.7,0.5,1.4,0.8,2.2,1
			c0.9,0.2,2.2,0.5,3.7,0.8C22.7,22,30.7,22,33.7,28c2,5-4,10-8.8,11.5C22.3,40.3,19.7,40.7,17,40.7z"/>
		<path class="st0" d="M63.7,46.6c-15-2.6-18-15.6-18-29.6c-7,1-12-3-9-9c0-1,6,1,8-1c1-1-1-6,0-6c7-3,8,5,12,7c8,5,18,4,19,16
			c-5-3-11-3-17-5c-1,13,7,23,19,26c-2,1.8-3.1,4.3-3,7c-2-1-4-3-5.5-3.1C67.1,48,65.3,47.2,63.7,46.6z"/>
		<path class="st0" d="M89.6,59.4C84.7,59,82.7,55,81.7,51c0.2-2.4,0.9-4.8,2-7c4-7,13-5,18-10c3-3-1-11-4-9c-6,3-6,12-12,5
			c-3-3-3-11,2-15c6-5,14-1,18,5c5,9,2,19,2,28l2-2c0,7-3,11-10,13c0-1,1-3,1-4c-1,2-3,3-4.9,3.7C93.8,59.6,91.6,59.8,89.6,59.4z
			 M93.8,53.5c5.8-0.5,9.8-7.5,8.8-12.5c-4,4-12,3-11.1,11.4C92.1,53.1,93,53.5,93.8,53.5z"/>
		<path class="st0" d="M110.5,10.1c3.2,7.9,2.2-13.1,7.2,2.9c3-7,11-8,16-3c4,3,2,8,4,12c-2.7-0.2-5.4,0.2-8,1c1-4-6-9-8-4
			c-5,12,5,31-10,35c4-12,2-25,0.6-37.1C111.2,12.8,110.5,10.1,110.5,10.1z"/>
		<path class="st0" d="M157.4,40.4c-4.2,0-7.4-0.9-9.4-2.7c-2-1.8-3-4.5-3-8V15.8h-7.2V7.7h4c1.1,0.1,2.2-0.3,3-1
			c0.7-0.8,1.1-1.9,1-3V0h8.2v7.7h11.6v8.1h-11.6V28c-0.1,1.2,0.3,2.4,1.1,3.3c1.1,0.8,2.4,1.1,3.7,1c2.3,0,4.6-0.2,6.8-0.6v8
			c-1.3,0.2-2.7,0.4-4.2,0.6C160,40.3,158.7,40.4,157.4,40.4z"/>
	</g>
</g>
</svg>
