<?xml version="1.0" encoding="utf-8"?>
<!-- Generator: Adobe Illustrator 24.1.3, SVG Export Plug-In . SVG Version: 6.00 Build 0)  -->
<svg version="1.1" id="Layer_1" xmlns="http://www.w3.org/2000/svg" xmlns:xlink="http://www.w3.org/1999/xlink" x="0px" y="0px"
	 viewBox="0 0 165.5 59.6" style="enable-background:new 0 0 165.5 59.6;" xml:space="preserve">
<style type="text/css">
	.st0{fill:#FFFFFF;}
</style>
<g id="Layer_2_1_">
	<g id="Layer_1-2">
		<path class="st0" d="M17,40.7c-4.1,0.1-8.1-0.9-11.6-3c-3.1-1.9-5.2-5.3-5.4-8.9h9.1c0.3,1.5,1.3,2.9,2.6,3.7
			c1.6,1,3.5,1.4,5.3,1.3c0.9,0,1.9-0.1,2.8-0.3c0.8-0.2,1.7-0.5,2.4-1c0.6-0.4,1-1.1,1-1.9c0-0.5-0.2-1-0.7-1.4
			c-0.6-0.4-1.3-0.7-2-0.9c-1.2-0.3-2.4-0.6-3.7-0.8l-0.8-0.1c-0.3,0-0.6-0.1-0.9-0.2c-2.5-0.5-4.9-1.1-7.3-1.9
			c-1.8-0.6-3.4-1.6-4.7-3c-1.3-1.5-2-3.3-1.9-5.3c-0.1-2.2,0.7-4.2,2.2-5.8C5,9.6,6.9,8.4,9.1,7.8c2.3-0.7,4.8-1,7.2-1
			c3.8-0.1,7.6,0.9,10.9,2.8c3,1.9,4.7,4.8,5.1,8.8h-9c-0.4-1.5-1.4-2.7-2.8-3.3c-1.6-0.8-3.3-1.1-5-1.1c-1.3,0-2.5,0.2-3.7,0.7
			c-1,0.3-1.6,1.2-1.6,2.2c0,0.6,0.3,1.2,0.8,1.6c0.7,0.5,1.4,0.8,2.2,1c0.9,0.2,2.2,0.5,3.7,0.8l0.8,0.1c0.2,0,0.5,0.1,0.9,0.2
			c0.1,0,0.3,0.1,0.5,0.1s0.3,0.1,0.5,0.1c2.3,0.4,4.6,1,6.8,1.8c1.7,0.6,3.2,1.6,4.5,2.9c1.2,1.3,1.8,3.1,1.7,4.9
			c0,2.1-0.7,4.1-2.1,5.6c-1.5,1.6-3.4,2.8-5.6,3.5C22.3,40.3,19.6,40.7,17,40.7z"/>
		<path class="st0" d="M54.8,40.4c-4.2,0-7.4-0.9-9.4-2.7c-2-1.8-3-4.5-3-8V15.8h-7.3V7.7h4c1.1,0.1,2.2-0.3,3-1
			c0.7-0.8,1.1-1.9,1-3V0h8.2v7.7h11.5v8.1H51.4V28c-0.1,1.2,0.3,2.4,1.1,3.3c1.1,0.8,2.4,1.1,3.7,1c2.3,0,4.6-0.2,6.8-0.6v8
			c-1.3,0.2-2.7,0.4-4.2,0.6C57.4,40.4,56.1,40.4,54.8,40.4z"/>
		<path class="st0" d="M78.6,40.4c-3.4,0-6.1-0.8-8.1-2.4c-2-1.6-3-4.1-2.9-6.6c0-1.9,0.6-3.8,1.8-5.3c1.4-1.6,3.3-2.9,5.4-3.5
			c2.9-0.9,5.9-1.5,8.9-1.6c1.6,0,3.2-0.3,4.7-0.9c0.8-0.3,1.4-1,1.4-1.9c0-1.2-0.6-2.3-1.6-2.9c-2.7-1.5-6-1.5-8.6,0.1
			c-1.2,0.8-2,2.1-2.3,3.5H69c0.3-2.3,1.2-4.5,2.6-6.4c1.4-1.8,3.3-3.2,5.4-4.1c2.4-1,4.9-1.4,7.4-1.4c2.6,0,5.1,0.5,7.4,1.6
			c2,1,3.8,2.6,4.9,4.6c1.2,2.1,1.8,4.4,1.7,6.8V32h3.7v7.8L91,39.9v-4c-1.5,1.5-3.3,2.6-5.3,3.3C83.4,40,81,40.5,78.6,40.4z
			 M80.7,33.6c1.6,0,3.2-0.4,4.7-1.2c1.4-0.7,2.6-1.8,3.5-3.1c0.9-1.2,1.3-2.6,1.3-4.1v-0.4c-0.6,0.4-1.3,0.7-2.1,0.9
			c-1.1,0.3-2.3,0.5-3.4,0.6h-0.3h-0.3c-2,0-4,0.5-5.8,1.3c-1.1,0.5-1.8,1.6-1.8,2.8c0,0.9,0.4,1.7,1.1,2.3
			C78.5,33.4,79.6,33.7,80.7,33.6z"/>
		<path class="st0" d="M107.5,7.7h8.2v3.7c1.1-1.4,2.6-2.5,4.2-3.2c1.7-0.8,3.5-1.1,5.4-1.1c2.1,0,4.2,0.5,6.1,1.5
			c1.8,1,3.3,2.4,4.2,4.2c1,2,1.6,4.2,1.5,6.5v2.2h-8.9v-1.3c0.1-1.3-0.4-2.6-1.4-3.5c-1.1-0.8-2.4-1.3-3.8-1.2
			c-1.2,0-2.3,0.3-3.3,0.9c-1,0.6-1.8,1.5-2.4,2.5c-0.6,1.1-0.9,2.3-0.9,3.6v17.3h-8.9L107.5,7.7z"/>
		<path class="st0" d="M157.4,40.4c-4.2,0-7.4-0.9-9.4-2.7c-2-1.8-3-4.5-3-8V15.8h-7.2V7.7h4c1.1,0.1,2.2-0.3,3-1
			c0.7-0.8,1.1-1.9,1-3V0h8.2v7.7h11.6v8.1h-11.6V28c-0.1,1.2,0.3,2.4,1.1,3.3c1.1,0.8,2.4,1.1,3.7,1c2.3,0,4.6-0.2,6.8-0.6v8
			c-1.3,0.2-2.7,0.4-4.2,0.6C160,40.3,158.7,40.4,157.4,40.4z"/>
	</g>
</g>
</svg>
