<?xml version="1.0" encoding="utf-8"?>
<!-- Generator: Adobe Illustrator 24.1.3, SVG Export Plug-In . SVG Version: 6.00 Build 0)  -->
<svg version="1.1" id="Layer_1" xmlns="http://www.w3.org/2000/svg" xmlns:xlink="http://www.w3.org/1999/xlink" x="0px" y="0px"
	 viewBox="0 0 216.9 94.9" style="enable-background:new 0 0 216.9 94.9;" xml:space="preserve">
<style type="text/css">
	.st0{fill:#FFFFFF;}
</style>
<g id="Layer_2_1_">
	<g id="Layer_1-2">
		<path class="st0" d="M20.4,54.3l-0.5-0.1c-0.2,0-0.3-0.1-0.5-0.1c-0.4-0.1-0.7-0.2-0.9-0.2l-0.8-0.1c-1.6-0.3-2.9-0.6-3.9-0.8
			c-0.8-0.2-1.6-0.5-2.3-1c-0.5-0.4-0.8-1-0.8-1.7c0-1.1,0.7-2,1.7-2.3c1.2-0.5,2.6-0.7,3.9-0.7c1.8,0,3.6,0.4,5.2,1.1
			c1.4,0.7,2.5,2,2.9,3.5l9.5,0.2c-0.5-4.3-2.2-7.4-5.4-9.4c-3.4-2.1-7.4-3.1-11.4-3c-2.6,0-5.1,0.4-7.6,1.1
			c-2.2,0.6-4.3,1.8-5.9,3.5c-1.5,1.6-2.4,3.8-2.3,6.1c-0.1,2,0.6,4,1.9,5.6c1.4,1.5,3.1,2.5,5,3.2c2.5,0.8,5.1,1.5,7.7,2
			c0.3,0.1,0.6,0.2,0.9,0.2l0.9,0.1c3,0.6,7-0.4,7,3.6s-4,3-6.9,3c-2,0.1-3.9-0.4-5.6-1.4c-1.4-0.8-2.4-2.2-2.8-3.8H0
			c0.3,3.9,2.5,7.3,5.7,9.4c1.7,1.1,3.6,1.9,5.5,2.4c2.2,0.5,4.4,0.8,6.6,0.8c2.7,0.1,5.4-0.1,8.1-0.6C32.8,75,35.8,67,33.8,62
			C30.8,57,25.8,55,20.4,54.3z"/>
		<path class="st0" d="M64.8,50c2-1,2-7,0-8c-2-2-8,0-11-2c-1-1,0-4,0.2-7.5h-8.6v3.8C44.8,37,44.8,39,43.8,40c-2,1-6,0-6,1
			c-4,7,0,9,7,9c0,14-2,32,12.9,39.6c1.3,0.6,2.7,0.8,4.1,0.8c1.3-0.4,2.6-0.5,3.9-0.4c1-5,0-10,0-15c-4,0-9,1-10-2c-4-7-4-16-1-23
			C55.8,48,62.8,53,64.8,50z"/>
		<path class="st0" d="M99.4,41.5c-2-1-4.2-1.6-6.4-1.5C88.8,39,85.8,42,82.8,45v-4c-3-1-6,0-8.5-0.2v5.9
			c-0.6,13.8-0.4,27.5,0.5,41.3c3-1,7-3,8-5c3-11-3-23,5-33c2-3,9-1,8,5c3-4,8,6,9.6-2.2c0.1-2.4-0.5-4.7-1.6-6.8
			C102.8,44,101.3,42.5,99.4,41.5z"/>
		<path class="st0" d="M135.1,42.2c-2.8-1.5-5.9-2.3-9-2.3c-3.2,0-6.4,0.8-9.3,2.3c-2.8,1.5-5.1,3.7-6.7,6.3
			c-1.6,2.8-2.5,5.9-2.4,9.1c0.2,6.3,3.2,12.3,8.8,15.1c3,1.5,6.3,2.2,9.6,2.2c2.8,0,5.5-0.5,8.1-1.5c2.2-0.9,4.2-2.2,5.8-4
			c1.4-1.5,2.4-3.4,2.8-5.4h-9.3c-0.7,1.1-1.7,1.9-2.9,2.4c-1.3,0.6-2.8,0.9-4.2,0.9c-1.6,0-3.1-0.3-4.5-1c-1.3-0.6-2.4-1.5-3.3-2.6
			c-0.8-1.1-1.4-2.4-1.7-3.7h26.9c0-0.5,0.1-0.9,0.1-1.3c0-0.5,0.1-0.9,0.1-1.4c0-3.1-0.8-6.2-2.4-8.9
			C140,45.8,137.8,43.6,135.1,42.2z M117,54c0.3-1.2,1-2.4,1.8-3.3c0.9-1,1.9-1.7,3.1-2.2c1.2-0.5,2.6-0.8,3.9-0.8
			c1.4,0,2.7,0.2,4,0.8c1.2,0.5,2.2,1.3,3,2.2c0.8,1,1.4,2.1,1.7,3.3H117z"/>
		<path class="st0" d="M176.1,42.2c-2.8-1.5-5.9-2.3-9-2.3c-3.2,0-6.4,0.8-9.3,2.3c-2.8,1.5-5.1,3.7-6.7,6.3
			c-1.6,2.8-2.5,5.9-2.4,9.1c0,3.2,0.7,6.3,2.3,9c1.5,2.6,3.8,4.8,6.5,6.1c5.6,2.7,12,2.9,17.7,0.7c2.2-0.9,4.2-2.2,5.8-4
			c1.4-1.5,2.4-3.4,2.8-5.4h-9.3c-0.7,1.1-1.7,1.9-2.9,2.4c-1.3,0.6-2.8,0.9-4.2,0.9c-1.6,0-3.1-0.3-4.5-1c-1.3-0.6-2.4-1.5-3.3-2.6
			c-0.8-1.1-1.4-2.4-1.7-3.7h26.9c0.1-0.5,0.1-0.9,0.1-1.3s0.1-0.9,0.1-1.4c0-3.1-0.8-6.2-2.4-8.9C181,45.8,178.8,43.6,176.1,42.2z
			 M158,54c0.4-1.2,1-2.4,1.9-3.3c0.9-1,1.9-1.7,3.1-2.3c2.5-1,5.4-1,7.9,0c1.2,0.5,2.2,1.3,3,2.2c0.8,1,1.4,2.1,1.8,3.4H158z"/>
		<path class="st0" d="M216.8,64c-14,7-16-13-11-17c7-8,11-11,9-22c-3,3-6,7-11,9V23c-9,3-6,11-12,17h-4c-1,3-1,7,1,9c1,1,4,0,6-1
			c0,5,2,11,0.6,15.7c0,3.7,1.1,6.5,3.2,8.4s5.4,2.8,9.8,2.8c1.4,0,2.7-0.1,4.1-0.3C218.1,73.4,216.8,67.6,216.8,64z"/>
	</g>
</g>
</svg>
