<?xml version="1.0" encoding="utf-8"?>
<!-- Generator: Adobe Illustrator 24.1.3, SVG Export Plug-In . SVG Version: 6.00 Build 0)  -->
<svg version="1.1" id="Layer_1" xmlns="http://www.w3.org/2000/svg" xmlns:xlink="http://www.w3.org/1999/xlink" x="0px" y="0px"
	 viewBox="0 0 344.1 94.9" style="enable-background:new 0 0 344.1 94.9;" xml:space="preserve">
<style type="text/css">
	.st0{fill:#FFFFFF;}
</style>
<g id="Layer_2_1_">
	<g id="Layer_1-2">
		<polygon class="st0" points="37.6,64.4 31.4,40.6 21.7,40.6 15.3,64.6 9.3,40.6 0,40.6 8.6,74.3 20.2,74.3 26.4,50.8 32.6,74.3 
			44.3,74.3 52.8,40.6 43.5,40.6 		"/>
		<path class="st0" d="M87.8,53.6c0.1-2.5-0.6-5-1.8-7.2c-1.2-2.1-3-3.7-5.2-4.8c-2.4-1.2-5.1-1.8-7.8-1.7c-2.7,0-5.3,0.5-7.8,1.5
			c-4.6,1.9-7.8,6.1-8.4,11h8.8c0.3-1.5,1.2-2.8,2.4-3.7c2.7-1.7,6.2-1.7,9-0.1c1.1,0.7,1.7,1.8,1.7,3.1c0,0.9-0.6,1.7-1.4,2
			c-1.6,0.6-3.3,0.9-5,0.9c-3.1,0.1-6.3,0.7-9.3,1.6c-2.2,0.7-4.2,1.9-5.7,3.7c-1.3,1.6-1.9,3.6-1.9,5.6c-0.1,2.7,1,5.3,3.1,7
			c2,1.7,4.8,2.5,8.4,2.5c2.5,0,5-0.4,7.4-1.3c2.1-0.7,4-1.9,5.6-3.5v4.2l11.7-0.1v-8.2h-3.9V53.6z M79.2,59.1
			c0,1.6-0.5,3.1-1.4,4.3c-2,2.8-5.2,4.4-8.6,4.5C68,67.9,66.9,67.6,66,67c-0.7-0.6-1.2-1.5-1.1-2.4c0-1.3,0.7-2.4,1.8-2.9
			c1.9-0.9,4-1.3,6.1-1.4c0.1,0,0.2,0,0.3,0h0.3c1.2-0.1,2.4-0.3,3.6-0.6c0.8-0.2,1.5-0.5,2.2-0.9L79.2,59.1z"/>
		<path class="st0" d="M111.3,32.5h-8.6v3.8c0.1,1.1-0.3,2.3-1,3.2c-0.9,0.8-2,1.2-3.1,1.1h-4.2v8.5h7.6v14.6c0,3.7,1,6.5,3.2,8.4
			s5.4,2.9,9.8,2.9c1.4,0,2.8-0.1,4.1-0.3c1.6-0.2,3-0.4,4.4-0.6v-8.4c-2.4,0.4-4.8,0.7-7.2,0.7c-1.4,0.1-2.7-0.2-3.9-1
			c-0.8-0.9-1.2-2.2-1.1-3.4V49.1h12.1v-8.5h-12.1V32.5z"/>
		<path class="st0" d="M155.5,42.2c-2.8-1.5-5.9-2.3-9-2.3c-3.2,0-6.4,0.8-9.3,2.3c-2.8,1.5-5.1,3.7-6.7,6.3
			c-1.7,2.7-2.5,5.9-2.5,9.1c-0.1,3.2,0.7,6.3,2.3,9c1.5,2.6,3.8,4.8,6.5,6.1c5.6,2.7,12,2.9,17.7,0.7c2.2-0.9,4.2-2.2,5.8-4
			c1.4-1.5,2.4-3.4,2.8-5.4h-9.3c-0.7,1.1-1.7,1.9-2.9,2.4c-1.3,0.6-2.8,0.9-4.2,0.9c-1.6,0-3.1-0.3-4.5-1c-1.3-0.6-2.4-1.5-3.3-2.6
			c-0.8-1.1-1.4-2.4-1.7-3.7H164c0-0.5,0.1-0.9,0.1-1.3c0-0.5,0.1-0.9,0.1-1.4c0-3.1-0.8-6.2-2.4-8.9
			C160.3,45.8,158.1,43.7,155.5,42.2z M137.3,54c0.4-1.2,1-2.4,1.9-3.3c0.9-1,1.9-1.7,3.1-2.2c1.2-0.5,2.6-0.8,3.9-0.8
			c1.4,0,2.7,0.2,4,0.8c1.2,0.5,2.2,1.3,3,2.2c0.8,1,1.4,2.1,1.8,3.3H137.3z"/>
		<path class="st0" d="M197.1,41.5c-3.8-1.9-8.2-2.1-12.1-0.4c-1.7,0.8-3.2,1.9-4.4,3.4v-3.9H172v33.7h9.4V56.1
			c0-1.3,0.3-2.6,0.9-3.8c0.6-1.1,1.4-2,2.5-2.6c1-0.6,2.2-1,3.4-0.9c1.4-0.1,2.9,0.4,4,1.2c1,0.9,1.6,2.3,1.5,3.7V55h9.4v-2.2
			c0.1-2.4-0.5-4.7-1.6-6.8C200.5,44,199,42.5,197.1,41.5z"/>
		<path class="st0" d="M231.9,56.2c-2.3-0.9-4.7-1.5-7.1-1.9l-0.5-0.1c-0.2,0-0.3-0.1-0.5-0.1c-0.4-0.1-0.7-0.2-0.9-0.2l-0.8-0.1
			c-1.6-0.3-2.9-0.6-3.9-0.8c-0.8-0.2-1.6-0.5-2.3-1c-0.5-0.4-0.8-1-0.8-1.7c0-1.1,0.7-2,1.7-2.3c1.2-0.5,2.6-0.7,3.9-0.7
			c1.8,0,3.6,0.4,5.2,1.1c1.4,0.7,2.5,2,2.9,3.5h9.5c-0.5-4.2-2.2-7.3-5.4-9.2c-3.4-2.1-7.4-3.1-11.4-3c-2.6,0-5.1,0.4-7.6,1.1
			c-2.2,0.6-4.3,1.8-5.9,3.5c-1.5,1.6-2.4,3.8-2.3,6.1c-0.1,2,0.6,4,1.9,5.6c1.4,1.5,3.1,2.5,5,3.2c2.5,0.8,5.1,1.5,7.7,2
			c0.3,0.1,0.7,0.2,1,0.2l0.9,0.1c1.3,0.2,2.6,0.5,3.8,0.8c0.8,0.2,1.5,0.5,2.1,0.9c0.5,0.3,0.7,0.9,0.7,1.4c0,0.8-0.3,1.6-1,2
			c-0.8,0.5-1.6,0.8-2.5,1c-1,0.2-2,0.3-3,0.3c-2,0.1-3.9-0.4-5.6-1.4c-1.4-0.8-2.4-2.2-2.8-3.8h-9.6c0.3,3.9,2.4,7.3,5.7,9.4
			c3.7,2.2,7.9,3.3,12.1,3.2c2.8,0,5.5-0.4,8.1-1.3c2.2-0.7,4.3-2,5.9-3.7c1.5-1.6,2.3-3.8,2.2-5.9c0.1-1.9-0.6-3.7-1.8-5.1
			C235.3,57.9,233.7,56.9,231.9,56.2z"/>
		<rect x="246.2" y="40.6" class="st0" width="9.4" height="33.7"/>
		<polygon class="st0" points="250.6,36.8 251.3,36.8 257.4,24.1 244.6,24.1 		"/>
		<path class="st0" d="M290.4,43.8c-2.7-2.5-6.2-3.9-9.9-3.8c-3,0-5.9,0.8-8.5,2.3c-2.5,1.5-4.6,3.7-6,6.3c-2.9,5.6-2.9,12.4,0,18
			c1.4,2.6,3.5,4.8,6,6.3c2.6,1.5,5.5,2.3,8.5,2.3c2.1,0,4.1-0.4,6-1.2c1.8-0.8,3.4-1.9,4.8-3.3v3.8h8.6V26.4h-9.4L290.4,43.8z
			 M289.5,62c-0.7,1.3-1.8,2.4-3.1,3.2c-2.7,1.6-6.1,1.6-8.8,0c-1.3-0.8-2.4-1.9-3.1-3.2c-1.5-2.8-1.5-6.2,0-9
			c0.7-1.3,1.8-2.4,3.1-3.2c2.7-1.6,6.1-1.6,8.8,0c1.3,0.8,2.4,1.9,3.1,3.2C291,55.8,291,59.2,289.5,62z"/>
		<path class="st0" d="M341.8,48.4c-1.5-2.6-3.8-4.8-6.4-6.2c-2.8-1.5-5.9-2.3-9-2.3c-3.3,0-6.5,0.7-9.4,2.3
			c-2.8,1.5-5.1,3.7-6.7,6.3c-1.6,2.8-2.5,5.9-2.4,9.1c-0.1,3.2,0.7,6.3,2.3,9c1.5,2.6,3.8,4.8,6.5,6.1c5.6,2.7,12,2.9,17.7,0.7
			c2.2-0.9,4.2-2.2,5.8-4c1.4-1.5,2.4-3.4,2.8-5.4h-9.3c-0.7,1.1-1.7,1.9-2.9,2.4c-1.3,0.6-2.8,0.9-4.2,0.9c-1.6,0-3.1-0.3-4.5-1
			c-1.3-0.6-2.4-1.5-3.3-2.6c-0.8-1.1-1.4-2.3-1.7-3.7h27c0-0.5,0.1-0.9,0.1-1.3s0.1-0.9,0.1-1.4C344.2,54.2,343.4,51.1,341.8,48.4z
			 M317.2,54c0.4-1.2,1-2.4,1.9-3.3c0.9-1,1.9-1.7,3.1-2.2c1.2-0.5,2.6-0.8,3.9-0.8c1.4,0,2.7,0.2,4,0.8c1.2,0.5,2.2,1.3,3,2.2
			c0.8,1,1.4,2.1,1.8,3.3H317.2z"/>
	</g>
</g>
</svg>
