<?xml version="1.0" encoding="utf-8"?>
<!-- Generator: Adobe Illustrator 24.1.3, SVG Export Plug-In . SVG Version: 6.00 Build 0)  -->
<svg version="1.1" id="Layer_1" xmlns="http://www.w3.org/2000/svg" xmlns:xlink="http://www.w3.org/1999/xlink" x="0px" y="0px"
	 viewBox="0 0 344.1 94.9" style="enable-background:new 0 0 344.1 94.9;" xml:space="preserve">
<style type="text/css">
	.st0{fill:#FFFFFF;}
</style>
<g id="Layer_2_1_">
	<g id="Layer_1-2">
		<path class="st0" d="M37.8,67c-2-8-3-15-5.5-22.6c-0.6-2.3-1-3.8-1-3.8h-9.7l-6.3,24l-6-24H0l8.6,33.7l11.6,0.2
			c1.5-8,3.7-15.9,6.6-23.5c4,13,2,28,17,32c3-14,12-31,6-40C42.8,33,41.8,58,37.8,67z"/>
		<path class="st0" d="M87.8,70c-1-9,3-19-4-26c-10-8-26-2-27,11c3,0,7,1,8,0c3-5,7-8,12-5c5,6,0,6-1,7c-7,3-17,2-20,11
			c-2,9,0,22,10.9,22.7c2.8-0.3,5.5-1.6,7.5-3.7c3.7-1,2.7-6,5.7-8v7c7-4,16-8,12-17C90.8,69,88.8,70,87.8,70z M69,78.8
			c-1.2,0.3-2.4-0.1-3.2-1.1c-5-8.7,7-11.7,13-14.7C78.8,69,75.8,77,69,78.8z"/>
		<path class="st0" d="M111.3,32.5h-8.6v3.8c0.1,1.1-0.3,2.3-1,3.2c-0.9,0.8-2,1.2-3.1,1.1h-4.2C93.8,44,92.8,47,93.8,49
			c2,1,5,0,8,0c0,10-3,28,13.1,26c1.4,0,2.8-0.1,4.1-0.3c1.6-0.2,3-0.4,4.4-0.6v-8.4c-2.4,0.4-4.8,0.7-7.2,0.7
			c-1.4,0.1-2.7-0.2-3.9-1c-0.8-0.9-1.2-2.2-1.1-3.4V49.1h12.1v-8.5h-12.1V32.5z"/>
		<path class="st0" d="M157.8,39c-7-3-14,0-20.7,3.2c-2.8,1.5-5.1,3.7-6.7,6.3c-1.6,2.8-2.5,5.9-2.4,9.1c-0.1,3.2,0.7,6.3,2.3,9
			c1.5,2.6,3.8,4.8,6.5,6.1c3,1.5,6.3,2.2,9.6,2.1c2.8-0.3,5.5-1.5,7.7-3.4c2.7-4.6,6.7-8.6,6.7-15.6c-7,3-11,14-18.7,10.4
			c-1.3-0.6-2.4-1.5-3.3-2.6c-0.8-1.1-1.4-2.4-1.7-3.7h4.2c8.5,0.9,16.5-4.1,19.5-10.1C162.8,46,161.8,40,157.8,39z M137.3,54
			c0.4-1.2,1-2.4,1.9-3.3c0.9-1,1.9-1.7,3.1-2.2c1.2-0.5,2.6-0.8,3.9-0.8c1.4,0,2.7,0.2,4,0.8c1.2,0.5,2.2,1.3,3,2.2
			c0.8,1,1.4,2.1,1.8,3.3H137.3z"/>
		<path class="st0" d="M192.8,23c-5-2-13-2-17,3v-2c-3,0-5,1-7.4,3.2c0,0-0.1,1.6-0.2,4.1c-0.4,8.7-1.4,18.7,0.6,27.7c8-8,5-18,9-28
			s13,5,19,1C199.8,31,195.8,25,192.8,23z"/>
		<path class="st0" d="M212.8,39c6,1,12,5,16,11c1,2,6,1,9,2c-3-14-25-23-37-20c5,13,23,17,25,29c1,3-3-2-6-4c-8-5-12-14-21-19
			c3,11,13,18,20.6,25.4c2.9,2.6,6.3,4.6,9.9,6c4.5,2.6,9.5-1.4,9.5-5.4C235.8,50,217.8,51,212.8,39z"/>
		<polygon class="st0" points="250.6,36.8 251.3,36.8 257.4,24.1 244.6,24.1 		"/>
		<rect x="246.2" y="40.6" class="st0" width="9.4" height="33.7"/>
		<path class="st0" d="M290.4,43.8c-2.7-2.5-6.2-3.9-9.9-3.8c-3,0-5.9,0.8-8.5,2.3c-2.5,1.5-4.6,3.7-6,6.3c-2.9,5.6-2.9,12.4,0,18
			c1.4,2.6,3.5,4.8,6,6.3c2.6,1.5,5.5,2.3,8.5,2.3c2.1,0,4.1-0.4,6-1.2c1.8-0.8,3.4-1.9,4.8-3.3v3.8h8.6V26.4h-9.4L290.4,43.8z
			 M289.5,62c-0.7,1.3-1.8,2.4-3.1,3.2c-2.7,1.6-6.1,1.6-8.8,0c-1.3-0.8-2.4-1.9-3.1-3.2c-1.5-2.8-1.5-6.2,0-9
			c0.7-1.3,1.8-2.4,3.1-3.2c2.7-1.6,6.1-1.6,8.8,0c1.3,0.8,2.4,1.9,3.1,3.2C291,55.8,291,59.2,289.5,62z"/>
		<path class="st0" d="M341.8,48.4c-1.5-2.6-3.8-4.8-6.4-6.2c-2.8-1.5-5.9-2.3-9-2.3c-3.3,0-6.5,0.7-9.4,2.3
			c-2.8,1.5-5.1,3.7-6.7,6.3c-1.6,2.8-2.5,5.9-2.4,9.1c-0.1,3.2,0.7,6.3,2.3,9c1.5,2.6,3.8,4.8,6.5,6.1c5.6,2.7,12,2.9,17.7,0.7
			c2.2-0.9,4.2-2.2,5.8-4c1.4-1.5,2.4-3.4,2.8-5.4h-9.3c-0.7,1.1-1.7,1.9-2.9,2.4c-1.3,0.6-2.8,0.9-4.2,0.9c-1.6,0-3.1-0.3-4.5-1
			c-1.3-0.6-2.4-1.5-3.3-2.6c-0.8-1.1-1.4-2.3-1.7-3.7h27c0-0.5,0.1-0.9,0.1-1.3s0.1-0.9,0.1-1.4C344.2,54.2,343.4,51.1,341.8,48.4z
			 M317.2,54c0.4-1.2,1-2.4,1.9-3.3c0.9-1,1.9-1.7,3.1-2.2c1.2-0.5,2.6-0.8,3.9-0.8c1.4,0,2.7,0.2,4,0.8c1.2,0.5,2.2,1.3,3,2.2
			c0.8,1,1.4,2.1,1.8,3.3H317.2z"/>
	</g>
</g>
</svg>
